<svg width="54" height="43" viewBox="0 0 54 43" fill="none" xmlns="http://www.w3.org/2000/svg">
<rect x="23.8843" y="12.7593" width="9.85138" height="29.5542" fill="#4656E3"/>
<path d="M53.4384 22.6107C41.6168 22.6107 33.8013 35.7787 33.7357 42.3135H23.8843C23.8843 32.4621 33.7357 12.7593 53.4384 12.7593V22.6107Z" fill="#4D5EF6"/>
<path d="M12.1608 12.759L5.17331 12.759C5.17325 24.2158 12.1609 32.1337 18.2366 32.1337C23.8839 32.1337 30.6917 24.0095 30.6917 12.7589L23.884 12.7589C23.884 16.988 20.6667 24.5389 18.2365 24.5389C15.8063 24.5389 12.1608 17.073 12.1608 12.759Z" fill="#F64D4D"/>
<path d="M53.4384 32.4621C41.6168 32.4621 33.8013 19.294 33.7357 12.7593H23.8843C23.8843 22.6107 33.7357 42.3135 53.4384 42.3135V32.4621Z" fill="#FE5F5F"/>
<rect x="2.31006" y="12.7593" width="9.85138" height="29.5542" fill="#E34646"/>
<rect x="23.8843" y="0.34668" width="9.85138" height="9.85138" fill="#FE5F5F"/>
</svg>
