<svg width="470" height="309" viewBox="0 0 470 309" fill="none" xmlns="http://www.w3.org/2000/svg">
<g filter="url(#filter0_d_111_34582)">
<rect x="32" y="29" width="406" height="245" rx="3.1534" fill="white"/>
</g>
<path d="M112.389 172.555H113.45V173.698H112.389V175.596H110.966V173.698H107.28L107.239 172.831L110.919 167.065H112.389V172.555ZM108.733 172.555H110.966V168.993L110.86 169.18L108.733 172.555ZM115.372 174.096C115.638 174.096 115.843 174.172 115.987 174.325C116.132 174.473 116.204 174.661 116.204 174.887C116.204 175.11 116.132 175.295 115.987 175.444C115.843 175.588 115.638 175.661 115.372 175.661C115.118 175.661 114.917 175.588 114.768 175.444C114.62 175.299 114.546 175.114 114.546 174.887C114.546 174.661 114.618 174.473 114.763 174.325C114.907 174.172 115.11 174.096 115.372 174.096ZM123.118 169.315C123.118 169.733 123.011 170.106 122.796 170.434C122.581 170.758 122.288 171.014 121.917 171.202C122.362 171.409 122.704 171.692 122.942 172.051C123.184 172.411 123.305 172.817 123.305 173.27C123.305 174.02 123.052 174.616 122.544 175.057C122.036 175.495 121.36 175.713 120.516 175.713C119.669 175.713 118.989 175.493 118.477 175.051C117.97 174.61 117.716 174.016 117.716 173.27C117.716 172.813 117.837 172.403 118.079 172.04C118.321 171.676 118.661 171.397 119.098 171.202C118.731 171.014 118.44 170.758 118.225 170.434C118.014 170.106 117.909 169.733 117.909 169.315C117.909 168.588 118.143 168.012 118.612 167.586C119.081 167.161 119.714 166.948 120.511 166.948C121.311 166.948 121.946 167.161 122.415 167.586C122.884 168.012 123.118 168.588 123.118 169.315ZM121.882 173.2C121.882 172.778 121.755 172.438 121.501 172.18C121.251 171.918 120.919 171.788 120.505 171.788C120.091 171.788 119.759 171.917 119.509 172.174C119.263 172.432 119.139 172.774 119.139 173.2C119.139 173.618 119.261 173.952 119.503 174.202C119.749 174.452 120.087 174.577 120.516 174.577C120.946 174.577 121.28 174.456 121.518 174.213C121.761 173.971 121.882 173.633 121.882 173.2ZM121.7 169.368C121.7 168.997 121.593 168.692 121.378 168.454C121.163 168.211 120.874 168.09 120.511 168.09C120.147 168.09 119.86 168.206 119.649 168.436C119.438 168.663 119.333 168.973 119.333 169.368C119.333 169.758 119.438 170.069 119.649 170.299C119.864 170.53 120.153 170.645 120.516 170.645C120.88 170.645 121.167 170.53 121.378 170.299C121.593 170.069 121.7 169.758 121.7 169.368Z" fill="black"/>
<path d="M69.1195 191.068C69.0219 191.966 68.6996 192.654 68.1527 193.13C67.6098 193.607 66.8852 193.845 65.9789 193.845C65.3461 193.845 64.7856 193.687 64.2973 193.371C63.8129 193.054 63.4379 192.607 63.1723 192.029C62.9066 191.447 62.7719 190.783 62.768 190.037V188.929C62.768 188.171 62.9008 187.5 63.1664 186.914C63.432 186.328 63.8129 185.876 64.309 185.56C64.809 185.24 65.3832 185.08 66.0316 185.08C66.9457 185.08 67.6664 185.328 68.1938 185.824C68.725 186.316 69.0336 186.998 69.1195 187.869H68.393C68.2133 186.419 67.4262 185.695 66.0316 185.695C65.2582 185.695 64.641 185.984 64.1801 186.562C63.7231 187.14 63.4945 187.939 63.4945 188.958V190.001C63.4945 190.986 63.7172 191.771 64.1625 192.357C64.6117 192.943 65.2172 193.236 65.9789 193.236C66.7328 193.236 67.3012 193.056 67.684 192.697C68.0668 192.333 68.3031 191.791 68.393 191.068H69.1195ZM72.4301 190.822H71.4574V193.728H70.7484V187.388H71.4574V190.201H72.4184L74.7445 187.388H75.6293L73.0277 190.464L75.9164 193.728H74.9906L72.4301 190.822ZM76.4145 190.464C76.4145 189.855 76.5316 189.306 76.766 188.818C77.0043 188.33 77.3383 187.951 77.768 187.681C78.2016 187.408 78.6918 187.271 79.2387 187.271C80.0824 187.271 80.766 187.568 81.2895 188.162C81.8129 188.751 82.0746 189.535 82.0746 190.511V190.658C82.0746 191.271 81.9555 191.824 81.7172 192.316C81.4828 192.804 81.1508 193.181 80.7211 193.447C80.2914 193.712 79.8012 193.845 79.2504 193.845C78.4106 193.845 77.727 193.55 77.1996 192.96C76.6762 192.367 76.4145 191.582 76.4145 190.605V190.464ZM77.1176 190.658C77.1176 191.416 77.3129 192.039 77.7035 192.527C78.0981 193.011 78.6137 193.253 79.2504 193.253C79.8832 193.253 80.3949 193.011 80.7856 192.527C81.1801 192.039 81.3773 191.396 81.3773 190.599V190.464C81.3773 189.98 81.2875 189.537 81.1078 189.134C80.9281 188.732 80.6762 188.421 80.352 188.203C80.0277 187.98 79.6566 187.869 79.2387 187.869C78.6137 187.869 78.1039 188.115 77.7094 188.607C77.3148 189.095 77.1176 189.736 77.1176 190.529V190.658ZM88.6254 190.623C88.6254 191.611 88.4066 192.396 87.9691 192.978C87.5316 193.556 86.9457 193.845 86.2113 193.845C85.3441 193.845 84.6801 193.541 84.2191 192.931V196.166H83.5219V187.388H84.1723L84.2074 188.285C84.6645 187.609 85.3266 187.271 86.1938 187.271C86.9516 187.271 87.5453 187.558 87.975 188.132C88.4086 188.707 88.6254 189.503 88.6254 190.523V190.623ZM87.9223 190.5C87.9223 189.691 87.7563 189.052 87.4242 188.583C87.0922 188.115 86.6293 187.88 86.0356 187.88C85.6059 187.88 85.2367 187.984 84.9281 188.191C84.6195 188.398 84.3832 188.699 84.2191 189.093V192.134C84.3871 192.498 84.6273 192.775 84.9398 192.966C85.2523 193.158 85.6215 193.253 86.0473 193.253C86.6371 193.253 87.0961 193.019 87.4242 192.55C87.7563 192.078 87.9223 191.394 87.9223 190.5ZM89.7973 190.464C89.7973 189.855 89.9145 189.306 90.1488 188.818C90.3871 188.33 90.7211 187.951 91.1508 187.681C91.5844 187.408 92.0746 187.271 92.6215 187.271C93.4652 187.271 94.1488 187.568 94.6723 188.162C95.1957 188.751 95.4574 189.535 95.4574 190.511V190.658C95.4574 191.271 95.3383 191.824 95.1 192.316C94.8656 192.804 94.5336 193.181 94.1039 193.447C93.6742 193.712 93.184 193.845 92.6332 193.845C91.7934 193.845 91.1098 193.55 90.5824 192.96C90.059 192.367 89.7973 191.582 89.7973 190.605V190.464ZM90.5004 190.658C90.5004 191.416 90.6957 192.039 91.0863 192.527C91.4809 193.011 91.9965 193.253 92.6332 193.253C93.266 193.253 93.7777 193.011 94.1684 192.527C94.5629 192.039 94.7602 191.396 94.7602 190.599V190.464C94.7602 189.98 94.6703 189.537 94.4906 189.134C94.3109 188.732 94.059 188.421 93.7348 188.203C93.4106 187.98 93.0395 187.869 92.6215 187.869C91.9965 187.869 91.4867 188.115 91.0922 188.607C90.6977 189.095 90.5004 189.736 90.5004 190.529V190.658ZM99.2543 193.253C99.7426 193.253 100.151 193.117 100.479 192.843C100.811 192.566 100.991 192.208 101.018 191.771H101.692C101.672 192.158 101.551 192.511 101.329 192.832C101.106 193.148 100.809 193.396 100.438 193.576C100.071 193.755 99.6762 193.845 99.2543 193.845C98.4223 193.845 97.7621 193.556 97.2738 192.978C96.7895 192.4 96.5473 191.623 96.5473 190.646V190.435C96.5473 189.81 96.6566 189.257 96.8754 188.777C97.0941 188.296 97.4066 187.925 97.8129 187.664C98.2231 187.402 98.7016 187.271 99.2484 187.271C99.9438 187.271 100.516 187.478 100.965 187.892C101.418 188.306 101.661 188.851 101.692 189.527H101.018C100.987 189.031 100.807 188.63 100.479 188.326C100.155 188.021 99.7445 187.869 99.2484 187.869C98.6156 187.869 98.1234 188.097 97.7719 188.554C97.4242 189.011 97.2504 189.652 97.2504 190.476V190.681C97.2504 191.49 97.4242 192.121 97.7719 192.574C98.1234 193.027 98.6176 193.253 99.2543 193.253ZM107.651 187.986H105.342V193.728H104.639V187.986H102.418V187.388H107.651V187.986ZM109.579 189.691H111.407C111.875 189.691 112.286 189.777 112.637 189.949C112.993 190.117 113.26 190.351 113.44 190.652C113.623 190.953 113.715 191.302 113.715 191.701C113.715 192.314 113.504 192.806 113.082 193.177C112.664 193.544 112.098 193.728 111.383 193.728H108.881V187.388H109.579V189.691ZM109.579 190.289V193.136H111.395C111.899 193.136 112.293 193.009 112.579 192.755C112.868 192.501 113.012 192.154 113.012 191.712C113.012 191.291 112.871 190.951 112.59 190.693C112.313 190.431 111.932 190.296 111.448 190.289H109.579ZM117.758 190.464C117.758 189.855 117.875 189.306 118.11 188.818C118.348 188.33 118.682 187.951 119.112 187.681C119.545 187.408 120.036 187.271 120.582 187.271C121.426 187.271 122.11 187.568 122.633 188.162C123.157 188.751 123.418 189.535 123.418 190.511V190.658C123.418 191.271 123.299 191.824 123.061 192.316C122.827 192.804 122.495 193.181 122.065 193.447C121.635 193.712 121.145 193.845 120.594 193.845C119.754 193.845 119.071 193.55 118.543 192.96C118.02 192.367 117.758 191.582 117.758 190.605V190.464ZM118.461 190.658C118.461 191.416 118.657 192.039 119.047 192.527C119.442 193.011 119.957 193.253 120.594 193.253C121.227 193.253 121.739 193.011 122.129 192.527C122.524 192.039 122.721 191.396 122.721 190.599V190.464C122.721 189.98 122.631 189.537 122.452 189.134C122.272 188.732 122.02 188.421 121.696 188.203C121.371 187.98 121 187.869 120.582 187.869C119.957 187.869 119.448 188.115 119.053 188.607C118.659 189.095 118.461 189.736 118.461 190.529V190.658ZM129.295 187.986H126.987V193.728H126.284V187.986H124.063V187.388H129.295V187.986ZM135.319 193.728H134.616V187.992H131.2V193.728H130.496V187.388H135.319V193.728ZM142.297 190.623C142.297 191.611 142.079 192.396 141.641 192.978C141.204 193.556 140.618 193.845 139.883 193.845C139.016 193.845 138.352 193.541 137.891 192.931V196.166H137.194V187.388H137.844L137.879 188.285C138.336 187.609 138.998 187.271 139.866 187.271C140.623 187.271 141.217 187.558 141.647 188.132C142.08 188.707 142.297 189.503 142.297 190.523V190.623ZM141.594 190.5C141.594 189.691 141.428 189.052 141.096 188.583C140.764 188.115 140.301 187.88 139.707 187.88C139.278 187.88 138.909 187.984 138.6 188.191C138.291 188.398 138.055 188.699 137.891 189.093V192.134C138.059 192.498 138.299 192.775 138.612 192.966C138.924 193.158 139.293 193.253 139.719 193.253C140.309 193.253 140.768 193.019 141.096 192.55C141.428 192.078 141.594 191.394 141.594 190.5ZM147.858 193.728C147.788 193.529 147.743 193.234 147.723 192.843C147.477 193.164 147.163 193.412 146.78 193.587C146.401 193.759 145.998 193.845 145.573 193.845C144.963 193.845 144.469 193.675 144.09 193.335C143.715 192.996 143.528 192.566 143.528 192.046C143.528 191.429 143.784 190.941 144.295 190.582C144.811 190.222 145.528 190.042 146.446 190.042H147.717V189.322C147.717 188.869 147.577 188.513 147.295 188.255C147.018 187.994 146.612 187.863 146.077 187.863C145.588 187.863 145.184 187.988 144.864 188.238C144.543 188.488 144.383 188.789 144.383 189.14L143.68 189.134C143.68 188.63 143.914 188.195 144.383 187.828C144.852 187.457 145.428 187.271 146.112 187.271C146.819 187.271 147.375 187.449 147.782 187.804C148.192 188.156 148.403 188.648 148.414 189.281V192.281C148.414 192.894 148.479 193.353 148.608 193.658V193.728H147.858ZM145.655 193.224C146.123 193.224 146.541 193.111 146.909 192.884C147.28 192.658 147.549 192.355 147.717 191.976V190.582H146.463C145.764 190.589 145.217 190.718 144.823 190.968C144.428 191.214 144.231 191.554 144.231 191.988C144.231 192.343 144.362 192.638 144.623 192.873C144.889 193.107 145.233 193.224 145.655 193.224ZM150.366 193.728V187.388H152.692C153.496 187.388 154.114 187.533 154.543 187.822C154.973 188.107 155.188 188.527 155.188 189.082C155.188 189.398 155.092 189.681 154.901 189.931C154.709 190.177 154.43 190.357 154.063 190.47C154.477 190.548 154.809 190.726 155.059 191.003C155.313 191.281 155.44 191.603 155.44 191.97C155.44 192.529 155.233 192.962 154.819 193.271C154.409 193.576 153.827 193.728 153.073 193.728H150.366ZM151.063 190.81V193.142H153.096C153.623 193.142 154.03 193.041 154.315 192.837C154.6 192.634 154.743 192.341 154.743 191.958C154.743 191.607 154.6 191.328 154.315 191.121C154.03 190.914 153.623 190.81 153.096 190.81H151.063ZM151.063 190.224H152.838C153.94 190.208 154.491 189.833 154.491 189.099C154.491 188.712 154.338 188.431 154.034 188.255C153.733 188.076 153.286 187.986 152.692 187.986H151.063V190.224ZM158.727 190.822H157.754V193.728H157.045V187.388H157.754V190.201H158.715L161.041 187.388H161.926L159.325 190.464L162.213 193.728H161.288L158.727 190.822ZM167.393 187.388H168.096V193.728H167.393V188.519L163.971 193.728H163.274V187.388H163.971V192.603L167.393 187.388Z" fill="black"/>
<path d="M238.389 172.555H239.45V173.698H238.389V175.596H236.966V173.698H233.28L233.239 172.831L236.919 167.065H238.389V172.555ZM234.733 172.555H236.966V168.993L236.86 169.18L234.733 172.555ZM241.372 174.096C241.638 174.096 241.843 174.172 241.987 174.325C242.132 174.473 242.204 174.661 242.204 174.887C242.204 175.11 242.132 175.295 241.987 175.444C241.843 175.588 241.638 175.661 241.372 175.661C241.118 175.661 240.917 175.588 240.768 175.444C240.62 175.299 240.546 175.114 240.546 174.887C240.546 174.661 240.618 174.473 240.763 174.325C240.907 174.172 241.11 174.096 241.372 174.096ZM247.782 172.028C247.305 172.532 246.749 172.784 246.112 172.784C245.362 172.784 244.764 172.522 244.319 171.999C243.874 171.471 243.651 170.78 243.651 169.924C243.651 169.362 243.764 168.852 243.991 168.395C244.218 167.938 244.54 167.583 244.958 167.329C245.376 167.075 245.86 166.948 246.411 166.948C247.27 166.948 247.952 167.268 248.456 167.909C248.96 168.549 249.212 169.407 249.212 170.481V170.879C249.212 172.418 248.864 173.592 248.169 174.401C247.473 175.209 246.436 175.62 245.057 175.631H244.888V174.454H245.093C245.932 174.442 246.577 174.241 247.026 173.85C247.475 173.456 247.727 172.848 247.782 172.028ZM246.411 171.67C246.696 171.67 246.964 171.588 247.214 171.424C247.464 171.26 247.657 171.034 247.794 170.745V170.188C247.794 169.559 247.665 169.053 247.407 168.67C247.149 168.288 246.815 168.096 246.405 168.096C245.995 168.096 245.667 168.266 245.421 168.606C245.179 168.942 245.057 169.368 245.057 169.883C245.057 170.418 245.18 170.85 245.427 171.178C245.673 171.506 246.001 171.67 246.411 171.67Z" fill="black"/>
<path d="M206 189.726H204.829V193.728H204.108V185.197H204.829V189.111H205.965L209.264 185.197H210.172L206.668 189.392L210.43 193.728H209.534L206 189.726ZM211.028 190.464C211.028 189.855 211.145 189.306 211.379 188.818C211.618 188.33 211.952 187.951 212.381 187.681C212.815 187.408 213.305 187.271 213.852 187.271C214.696 187.271 215.379 187.568 215.903 188.162C216.426 188.751 216.688 189.535 216.688 190.511V190.658C216.688 191.271 216.569 191.824 216.33 192.316C216.096 192.804 215.764 193.181 215.334 193.447C214.905 193.712 214.414 193.845 213.864 193.845C213.024 193.845 212.34 193.55 211.813 192.96C211.289 192.367 211.028 191.582 211.028 190.605V190.464ZM211.731 190.658C211.731 191.416 211.926 192.039 212.317 192.527C212.711 193.011 213.227 193.253 213.864 193.253C214.496 193.253 215.008 193.011 215.399 192.527C215.793 192.039 215.991 191.396 215.991 190.599V190.464C215.991 189.98 215.901 189.537 215.721 189.134C215.541 188.732 215.289 188.421 214.965 188.203C214.641 187.98 214.27 187.869 213.852 187.869C213.227 187.869 212.717 188.115 212.323 188.607C211.928 189.095 211.731 189.736 211.731 190.529V190.658ZM223.01 193.728H222.307V190.822H218.891V193.728H218.188V187.388H218.891V190.23H222.307V187.388H223.01V193.728ZM227.235 193.253C227.723 193.253 228.131 193.117 228.459 192.843C228.791 192.566 228.971 192.208 228.998 191.771H229.672C229.653 192.158 229.532 192.511 229.309 192.832C229.086 193.148 228.789 193.396 228.418 193.576C228.051 193.755 227.657 193.845 227.235 193.845C226.403 193.845 225.743 193.556 225.254 192.978C224.77 192.4 224.528 191.623 224.528 190.646V190.435C224.528 189.81 224.637 189.257 224.856 188.777C225.075 188.296 225.387 187.925 225.793 187.664C226.204 187.402 226.682 187.271 227.229 187.271C227.924 187.271 228.496 187.478 228.946 187.892C229.399 188.306 229.641 188.851 229.672 189.527H228.998C228.967 189.031 228.788 188.63 228.459 188.326C228.135 188.021 227.725 187.869 227.229 187.869C226.596 187.869 226.104 188.097 225.752 188.554C225.405 189.011 225.231 189.652 225.231 190.476V190.681C225.231 191.49 225.405 192.121 225.752 192.574C226.104 193.027 226.598 193.253 227.235 193.253ZM233.088 192.72L234.94 187.388H235.696L232.989 194.806L232.848 195.134C232.5 195.904 231.963 196.289 231.237 196.289C231.069 196.289 230.889 196.261 230.698 196.207L230.692 195.626L231.055 195.662C231.399 195.662 231.676 195.576 231.887 195.404C232.102 195.236 232.284 194.945 232.432 194.531L232.743 193.675L230.352 187.388H231.12L233.088 192.72ZM241.414 187.388V193.728H240.711V187.992H238.116L238.004 190.365C237.957 191.244 237.87 191.916 237.741 192.38C237.612 192.841 237.42 193.181 237.166 193.4C236.913 193.619 236.575 193.728 236.153 193.728H235.883V193.107L236.1 193.095C236.502 193.087 236.791 192.892 236.967 192.509C237.143 192.126 237.258 191.443 237.313 190.458L237.442 187.388H241.414ZM244.075 189.691H245.903C246.371 189.691 246.782 189.777 247.133 189.949C247.489 190.117 247.756 190.351 247.936 190.652C248.12 190.953 248.211 191.302 248.211 191.701C248.211 192.314 248 192.806 247.579 193.177C247.161 193.544 246.594 193.728 245.879 193.728H243.377V187.388H244.075V189.691ZM244.075 190.289V193.136H245.891C246.395 193.136 246.789 193.009 247.075 192.755C247.364 192.501 247.508 192.154 247.508 191.712C247.508 191.291 247.368 190.951 247.086 190.693C246.809 190.431 246.428 190.296 245.944 190.289H244.075ZM253.866 187.986H251.557V193.728H250.854V187.986H248.633V187.388H253.866V187.986ZM258.928 193.728C258.858 193.529 258.813 193.234 258.793 192.843C258.547 193.164 258.233 193.412 257.85 193.587C257.471 193.759 257.069 193.845 256.643 193.845C256.034 193.845 255.539 193.675 255.161 193.335C254.786 192.996 254.598 192.566 254.598 192.046C254.598 191.429 254.854 190.941 255.366 190.582C255.881 190.222 256.598 190.042 257.516 190.042H258.788V189.322C258.788 188.869 258.647 188.513 258.366 188.255C258.088 187.994 257.682 187.863 257.147 187.863C256.659 187.863 256.254 187.988 255.934 188.238C255.614 188.488 255.454 188.789 255.454 189.14L254.75 189.134C254.75 188.63 254.985 188.195 255.454 187.828C255.922 187.457 256.498 187.271 257.182 187.271C257.889 187.271 258.446 187.449 258.852 187.804C259.262 188.156 259.473 188.648 259.485 189.281V192.281C259.485 192.894 259.549 193.353 259.678 193.658V193.728H258.928ZM256.725 193.224C257.194 193.224 257.612 193.111 257.979 192.884C258.35 192.658 258.62 192.355 258.788 191.976V190.582H257.534C256.834 190.589 256.288 190.718 255.893 190.968C255.498 191.214 255.301 191.554 255.301 191.988C255.301 192.343 255.432 192.638 255.694 192.873C255.959 193.107 256.303 193.224 256.725 193.224ZM261.407 187.388H262.11V193.136H265.526V187.388H266.229V193.136H266.873L266.821 195.609H266.176V193.728H261.407V187.388ZM272.358 187.388H273.061V193.728H272.358V188.519L268.936 193.728H268.239V187.388H268.936V192.603L272.358 187.388ZM279.565 187.388V193.728H278.862V191.173H276.893L275.346 193.728H274.573L276.166 191.085C275.733 190.972 275.395 190.753 275.153 190.429C274.914 190.105 274.795 189.722 274.795 189.281C274.795 188.707 275 188.248 275.411 187.904C275.825 187.56 276.383 187.388 277.086 187.388H279.565ZM275.498 189.292C275.498 189.664 275.616 189.968 275.85 190.207C276.088 190.445 276.418 190.568 276.84 190.576H278.862V187.986H277.069C276.58 187.986 276.196 188.103 275.914 188.337C275.637 188.572 275.498 188.89 275.498 189.292Z" fill="black"/>
<path d="M357.389 172.555H358.45V173.698H357.389V175.596H355.966V173.698H352.28L352.239 172.831L355.919 167.065H357.389V172.555ZM353.733 172.555H355.966V168.993L355.86 169.18L353.733 172.555ZM360.372 174.096C360.637 174.096 360.843 174.172 360.987 174.325C361.132 174.473 361.204 174.661 361.204 174.887C361.204 175.11 361.132 175.295 360.987 175.444C360.843 175.588 360.637 175.661 360.372 175.661C360.118 175.661 359.917 175.588 359.768 175.444C359.62 175.299 359.546 175.114 359.546 174.887C359.546 174.661 359.618 174.473 359.762 174.325C359.907 174.172 360.11 174.096 360.372 174.096ZM366.782 172.028C366.305 172.532 365.749 172.784 365.112 172.784C364.362 172.784 363.764 172.522 363.319 171.999C362.874 171.471 362.651 170.78 362.651 169.924C362.651 169.362 362.764 168.852 362.991 168.395C363.218 167.938 363.54 167.583 363.958 167.329C364.376 167.075 364.86 166.948 365.411 166.948C366.27 166.948 366.952 167.268 367.456 167.909C367.96 168.549 368.212 169.407 368.212 170.481V170.879C368.212 172.418 367.864 173.592 367.169 174.401C366.473 175.209 365.436 175.62 364.057 175.631H363.887V174.454H364.093C364.932 174.442 365.577 174.241 366.026 173.85C366.475 173.456 366.727 172.848 366.782 172.028ZM365.411 171.67C365.696 171.67 365.964 171.588 366.214 171.424C366.464 171.26 366.657 171.034 366.794 170.745V170.188C366.794 169.559 366.665 169.053 366.407 168.67C366.149 168.288 365.815 168.096 365.405 168.096C364.995 168.096 364.667 168.266 364.421 168.606C364.178 168.942 364.057 169.368 364.057 169.883C364.057 170.418 364.18 170.85 364.427 171.178C364.673 171.506 365.001 171.67 365.411 171.67Z" fill="black"/>
<path d="M317 189.726H315.828V193.728H315.108V185.197H315.828V189.111H316.965L320.264 185.197H321.172L317.668 189.392L321.43 193.728H320.534L317 189.726ZM326.58 193.728C326.51 193.529 326.465 193.234 326.446 192.843C326.2 193.164 325.885 193.412 325.502 193.587C325.123 193.759 324.721 193.845 324.295 193.845C323.686 193.845 323.192 193.675 322.813 193.335C322.438 192.996 322.25 192.566 322.25 192.046C322.25 191.429 322.506 190.941 323.018 190.582C323.534 190.222 324.25 190.042 325.168 190.042H326.44V189.322C326.44 188.869 326.299 188.513 326.018 188.255C325.741 187.994 325.334 187.863 324.799 187.863C324.311 187.863 323.907 187.988 323.586 188.238C323.266 188.488 323.106 188.789 323.106 189.14L322.403 189.134C322.403 188.63 322.637 188.195 323.106 187.828C323.575 187.457 324.151 187.271 324.834 187.271C325.541 187.271 326.098 187.449 326.504 187.804C326.914 188.156 327.125 188.648 327.137 189.281V192.281C327.137 192.894 327.202 193.353 327.33 193.658V193.728H326.58ZM324.377 193.224C324.846 193.224 325.264 193.111 325.631 192.884C326.002 192.658 326.272 192.355 326.44 191.976V190.582H325.186C324.487 190.589 323.94 190.718 323.545 190.968C323.151 191.214 322.953 191.554 322.953 191.988C322.953 192.343 323.084 192.638 323.346 192.873C323.612 193.107 323.955 193.224 324.377 193.224ZM333.524 193.728H332.821V191.062C332.243 191.273 331.69 191.378 331.162 191.378C330.323 191.378 329.713 191.195 329.334 190.828C328.955 190.457 328.758 189.88 328.743 189.099V187.388H329.44V189.064C329.448 189.669 329.58 190.107 329.838 190.376C330.1 190.642 330.541 190.775 331.162 190.775C331.729 190.759 332.282 190.658 332.821 190.47V187.388H333.524V193.728ZM337.854 193.845C337.315 193.845 336.827 193.712 336.389 193.447C335.955 193.181 335.618 192.812 335.375 192.339C335.133 191.863 335.012 191.33 335.012 190.74V190.488C335.012 189.878 335.129 189.33 335.364 188.841C335.602 188.353 335.932 187.97 336.354 187.693C336.776 187.412 337.233 187.271 337.725 187.271C338.495 187.271 339.104 187.535 339.553 188.062C340.006 188.585 340.233 189.302 340.233 190.212V190.605H335.709V190.74C335.709 191.458 335.914 192.058 336.325 192.539C336.739 193.015 337.258 193.253 337.883 193.253C338.258 193.253 338.588 193.185 338.873 193.048C339.162 192.912 339.424 192.693 339.659 192.392L340.098 192.726C339.582 193.472 338.834 193.845 337.854 193.845ZM337.725 187.869C337.198 187.869 336.752 188.062 336.389 188.449C336.03 188.835 335.811 189.355 335.733 190.007H339.536V189.931C339.516 189.322 339.342 188.826 339.014 188.443C338.686 188.06 338.256 187.869 337.725 187.869ZM343.942 193.253C344.43 193.253 344.838 193.117 345.166 192.843C345.498 192.566 345.678 192.208 345.705 191.771H346.379C346.36 192.158 346.239 192.511 346.016 192.832C345.793 193.148 345.496 193.396 345.125 193.576C344.758 193.755 344.364 193.845 343.942 193.845C343.11 193.845 342.45 193.556 341.961 192.978C341.477 192.4 341.235 191.623 341.235 190.646V190.435C341.235 189.81 341.344 189.257 341.563 188.777C341.782 188.296 342.094 187.925 342.5 187.664C342.911 187.402 343.389 187.271 343.936 187.271C344.631 187.271 345.203 187.478 345.653 187.892C346.106 188.306 346.348 188.851 346.379 189.527H345.705C345.674 189.031 345.495 188.63 345.166 188.326C344.842 188.021 344.432 187.869 343.936 187.869C343.303 187.869 342.811 188.097 342.459 188.554C342.112 189.011 341.938 189.652 341.938 190.476V190.681C341.938 191.49 342.112 192.121 342.459 192.574C342.811 193.027 343.305 193.253 343.942 193.253ZM352.338 187.986H350.03V193.728H349.327V187.986H347.106V187.388H352.338V187.986ZM353.569 193.728V187.388H355.895C356.7 187.388 357.317 187.533 357.746 187.822C358.176 188.107 358.391 188.527 358.391 189.082C358.391 189.398 358.295 189.681 358.104 189.931C357.912 190.177 357.633 190.357 357.266 190.47C357.68 190.548 358.012 190.726 358.262 191.003C358.516 191.281 358.643 191.603 358.643 191.97C358.643 192.529 358.436 192.962 358.022 193.271C357.612 193.576 357.03 193.728 356.276 193.728H353.569ZM354.266 190.81V193.142H356.299C356.827 193.142 357.233 193.041 357.518 192.837C357.803 192.634 357.946 192.341 357.946 191.958C357.946 191.607 357.803 191.328 357.518 191.121C357.233 190.914 356.827 190.81 356.299 190.81H354.266ZM354.266 190.224H356.041C357.143 190.208 357.694 189.833 357.694 189.099C357.694 188.712 357.541 188.431 357.237 188.255C356.936 188.076 356.489 187.986 355.895 187.986H354.266V190.224ZM359.821 190.464C359.821 189.855 359.938 189.306 360.172 188.818C360.411 188.33 360.745 187.951 361.174 187.681C361.608 187.408 362.098 187.271 362.645 187.271C363.489 187.271 364.172 187.568 364.696 188.162C365.219 188.751 365.481 189.535 365.481 190.511V190.658C365.481 191.271 365.362 191.824 365.123 192.316C364.889 192.804 364.557 193.181 364.127 193.447C363.698 193.712 363.207 193.845 362.657 193.845C361.817 193.845 361.133 193.55 360.606 192.96C360.082 192.367 359.821 191.582 359.821 190.605V190.464ZM360.524 190.658C360.524 191.416 360.719 192.039 361.11 192.527C361.504 193.011 362.02 193.253 362.657 193.253C363.289 193.253 363.801 193.011 364.192 192.527C364.586 192.039 364.784 191.396 364.784 190.599V190.464C364.784 189.98 364.694 189.537 364.514 189.134C364.334 188.732 364.082 188.421 363.758 188.203C363.434 187.98 363.063 187.869 362.645 187.869C362.02 187.869 361.51 188.115 361.116 188.607C360.721 189.095 360.524 189.736 360.524 190.529V190.658ZM374.405 187.986H372.096V193.728H371.393V187.986H369.172V187.388H374.405V187.986ZM374.926 190.464C374.926 189.855 375.043 189.306 375.278 188.818C375.516 188.33 375.85 187.951 376.28 187.681C376.713 187.408 377.203 187.271 377.75 187.271C378.594 187.271 379.278 187.568 379.801 188.162C380.325 188.751 380.586 189.535 380.586 190.511V190.658C380.586 191.271 380.467 191.824 380.229 192.316C379.995 192.804 379.662 193.181 379.233 193.447C378.803 193.712 378.313 193.845 377.762 193.845C376.922 193.845 376.239 193.55 375.711 192.96C375.188 192.367 374.926 191.582 374.926 190.605V190.464ZM375.629 190.658C375.629 191.416 375.825 192.039 376.215 192.527C376.61 193.011 377.125 193.253 377.762 193.253C378.395 193.253 378.907 193.011 379.297 192.527C379.692 192.039 379.889 191.396 379.889 190.599V190.464C379.889 189.98 379.799 189.537 379.62 189.134C379.44 188.732 379.188 188.421 378.864 188.203C378.539 187.98 378.168 187.869 377.75 187.869C377.125 187.869 376.616 188.115 376.221 188.607C375.827 189.095 375.629 189.736 375.629 190.529V190.658ZM382.116 193.728V187.388H384.442C385.246 187.388 385.864 187.533 386.293 187.822C386.723 188.107 386.938 188.527 386.938 189.082C386.938 189.398 386.842 189.681 386.651 189.931C386.459 190.177 386.18 190.357 385.813 190.47C386.227 190.548 386.559 190.726 386.809 191.003C387.063 191.281 387.19 191.603 387.19 191.97C387.19 192.529 386.983 192.962 386.569 193.271C386.159 193.576 385.577 193.728 384.823 193.728H382.116ZM382.813 190.81V193.142H384.846C385.373 193.142 385.78 193.041 386.065 192.837C386.35 192.634 386.493 192.341 386.493 191.958C386.493 191.607 386.35 191.328 386.065 191.121C385.78 190.914 385.373 190.81 384.846 190.81H382.813ZM382.813 190.224H384.588C385.69 190.208 386.241 189.833 386.241 189.099C386.241 188.712 386.088 188.431 385.784 188.255C385.483 188.076 385.036 187.986 384.442 187.986H382.813V190.224ZM392.756 193.728C392.686 193.529 392.641 193.234 392.621 192.843C392.375 193.164 392.061 193.412 391.678 193.587C391.299 193.759 390.897 193.845 390.471 193.845C389.862 193.845 389.368 193.675 388.989 193.335C388.614 192.996 388.426 192.566 388.426 192.046C388.426 191.429 388.682 190.941 389.194 190.582C389.709 190.222 390.426 190.042 391.344 190.042H392.616V189.322C392.616 188.869 392.475 188.513 392.194 188.255C391.916 187.994 391.51 187.863 390.975 187.863C390.487 187.863 390.082 187.988 389.762 188.238C389.442 188.488 389.282 188.789 389.282 189.14L388.578 189.134C388.578 188.63 388.813 188.195 389.282 187.828C389.75 187.457 390.327 187.271 391.01 187.271C391.717 187.271 392.274 187.449 392.68 187.804C393.09 188.156 393.301 188.648 393.313 189.281V192.281C393.313 192.894 393.377 193.353 393.506 193.658V193.728H392.756ZM390.553 193.224C391.022 193.224 391.44 193.111 391.807 192.884C392.178 192.658 392.448 192.355 392.616 191.976V190.582H391.362C390.662 190.589 390.116 190.718 389.721 190.968C389.327 191.214 389.129 191.554 389.129 191.988C389.129 192.343 389.26 192.638 389.522 192.873C389.787 193.107 390.131 193.224 390.553 193.224ZM400.286 190.623C400.286 191.611 400.067 192.396 399.629 192.978C399.192 193.556 398.606 193.845 397.871 193.845C397.004 193.845 396.34 193.541 395.879 192.931V196.166H395.182V187.388H395.832L395.868 188.285C396.325 187.609 396.987 187.271 397.854 187.271C398.612 187.271 399.205 187.558 399.635 188.132C400.069 188.707 400.286 189.503 400.286 190.523V190.623ZM399.582 190.5C399.582 189.691 399.416 189.052 399.084 188.583C398.752 188.115 398.289 187.88 397.696 187.88C397.266 187.88 396.897 187.984 396.588 188.191C396.28 188.398 396.043 188.699 395.879 189.093V192.134C396.047 192.498 396.287 192.775 396.6 192.966C396.912 193.158 397.282 193.253 397.707 193.253C398.297 193.253 398.756 193.019 399.084 192.55C399.416 192.078 399.582 191.394 399.582 190.5ZM405.846 193.728C405.776 193.529 405.731 193.234 405.711 192.843C405.465 193.164 405.151 193.412 404.768 193.587C404.389 193.759 403.987 193.845 403.561 193.845C402.952 193.845 402.457 193.675 402.078 193.335C401.703 192.996 401.516 192.566 401.516 192.046C401.516 191.429 401.772 190.941 402.284 190.582C402.799 190.222 403.516 190.042 404.434 190.042H405.705V189.322C405.705 188.869 405.565 188.513 405.284 188.255C405.006 187.994 404.6 187.863 404.065 187.863C403.577 187.863 403.172 187.988 402.852 188.238C402.532 188.488 402.371 188.789 402.371 189.14L401.668 189.134C401.668 188.63 401.903 188.195 402.371 187.828C402.84 187.457 403.416 187.271 404.1 187.271C404.807 187.271 405.364 187.449 405.77 187.804C406.18 188.156 406.391 188.648 406.403 189.281V192.281C406.403 192.894 406.467 193.353 406.596 193.658V193.728H405.846ZM403.643 193.224C404.112 193.224 404.53 193.111 404.897 192.884C405.268 192.658 405.537 192.355 405.705 191.976V190.582H404.452C403.752 190.589 403.205 190.718 402.811 190.968C402.416 191.214 402.219 191.554 402.219 191.988C402.219 192.343 402.35 192.638 402.612 192.873C402.877 193.107 403.221 193.224 403.643 193.224Z" fill="black"/>
<path d="M141.278 54.1553L141.694 49.9951H145.959V50.6455H142.297L141.998 53.5283C142.455 53.2158 142.991 53.0596 143.604 53.0596C144.373 53.0596 144.987 53.3096 145.444 53.8096C145.901 54.3096 146.129 54.9756 146.129 55.8076C146.129 56.7061 145.907 57.4033 145.461 57.8994C145.016 58.3955 144.389 58.6436 143.58 58.6436C142.838 58.6436 142.237 58.4365 141.776 58.0225C141.315 57.6084 141.051 57.0283 140.985 56.2822H141.659C141.725 56.8643 141.922 57.3057 142.25 57.6064C142.579 57.9033 143.022 58.0518 143.58 58.0518C144.19 58.0518 144.649 57.8584 144.957 57.4717C145.27 57.085 145.426 56.5342 145.426 55.8193C145.426 55.1943 145.252 54.6846 144.905 54.29C144.557 53.8955 144.082 53.6982 143.481 53.6982C143.149 53.6982 142.86 53.7412 142.614 53.8271C142.368 53.9092 142.108 54.0713 141.834 54.3135L141.278 54.1553ZM154.204 53.8623C154.204 53.4795 154.061 53.1846 153.776 52.9775C153.491 52.7705 153.098 52.667 152.598 52.667C152.145 52.667 151.756 52.7842 151.432 53.0186C151.112 53.249 150.952 53.542 150.952 53.8975H150.254C150.254 53.3701 150.479 52.9346 150.928 52.5908C151.381 52.2471 151.938 52.0752 152.598 52.0752C153.325 52.0752 153.891 52.2314 154.297 52.5439C154.704 52.8564 154.907 53.2998 154.907 53.874C154.907 54.1787 154.813 54.4541 154.625 54.7002C154.438 54.9463 154.164 55.1377 153.805 55.2744C154.618 55.4971 155.024 56.001 155.024 56.7861C155.024 57.3564 154.803 57.8076 154.362 58.1396C153.92 58.4717 153.334 58.6377 152.604 58.6377C151.897 58.6377 151.311 58.46 150.846 58.1045C150.381 57.749 150.149 57.2842 150.149 56.71H150.852C150.852 57.0928 151.02 57.4131 151.356 57.6709C151.696 57.9248 152.112 58.0518 152.604 58.0518C153.139 58.0518 153.557 57.9404 153.858 57.7178C154.163 57.4912 154.315 57.1846 154.315 56.7979C154.315 56.3721 154.176 56.0654 153.899 55.8779C153.621 55.6904 153.198 55.5967 152.627 55.5967H151.661V54.9873H152.745C153.717 54.9639 154.204 54.5889 154.204 53.8623ZM156.647 58.5264V52.1865H158.973C159.778 52.1865 160.395 52.3311 160.825 52.6201C161.254 52.9053 161.469 53.3252 161.469 53.8799C161.469 54.1963 161.373 54.4795 161.182 54.7295C160.991 54.9756 160.711 55.1553 160.344 55.2686C160.758 55.3467 161.09 55.5244 161.34 55.8018C161.594 56.0791 161.721 56.4014 161.721 56.7686C161.721 57.3271 161.514 57.7607 161.1 58.0693C160.69 58.374 160.108 58.5264 159.354 58.5264H156.647ZM157.344 55.6084V57.9404H159.377C159.905 57.9404 160.311 57.8389 160.596 57.6357C160.881 57.4326 161.024 57.1396 161.024 56.7568C161.024 56.4053 160.881 56.126 160.596 55.9189C160.311 55.7119 159.905 55.6084 159.377 55.6084H157.344ZM157.344 55.0225H159.12C160.221 55.0068 160.772 54.6318 160.772 53.8975C160.772 53.5107 160.62 53.2295 160.315 53.0537C160.014 52.874 159.567 52.7842 158.973 52.7842H157.344V55.0225ZM165.741 58.6436C165.202 58.6436 164.713 58.5107 164.276 58.2451C163.842 57.9795 163.504 57.6104 163.262 57.1377C163.02 56.6611 162.899 56.1279 162.899 55.5381V55.2861C162.899 54.6768 163.016 54.1279 163.25 53.6396C163.489 53.1514 163.819 52.7686 164.241 52.4912C164.663 52.21 165.12 52.0693 165.612 52.0693C166.381 52.0693 166.991 52.333 167.44 52.8604C167.893 53.3838 168.12 54.1006 168.12 55.0107V55.4033H163.596V55.5381C163.596 56.2568 163.801 56.8564 164.211 57.3369C164.625 57.8135 165.145 58.0518 165.77 58.0518C166.145 58.0518 166.475 57.9834 166.76 57.8467C167.049 57.71 167.311 57.4912 167.545 57.1904L167.985 57.5244C167.469 58.2705 166.721 58.6436 165.741 58.6436ZM165.612 52.667C165.084 52.667 164.639 52.8604 164.276 53.2471C163.916 53.6338 163.698 54.1533 163.62 54.8057H167.422V54.7295C167.403 54.1201 167.229 53.624 166.901 53.2412C166.573 52.8584 166.143 52.667 165.612 52.667ZM163.936 50.3467C163.936 50.2139 163.979 50.1025 164.065 50.0127C164.151 49.9189 164.268 49.8721 164.416 49.8721C164.565 49.8721 164.682 49.9189 164.768 50.0127C164.858 50.1025 164.903 50.2139 164.903 50.3467C164.903 50.4756 164.858 50.585 164.768 50.6748C164.682 50.7646 164.565 50.8096 164.416 50.8096C164.268 50.8096 164.151 50.7646 164.065 50.6748C163.979 50.585 163.936 50.4756 163.936 50.3467ZM166.502 50.3525C166.502 50.2197 166.545 50.1084 166.631 50.0186C166.717 49.9248 166.834 49.8779 166.983 49.8779C167.131 49.8779 167.248 49.9248 167.334 50.0186C167.424 50.1084 167.469 50.2197 167.469 50.3525C167.469 50.4814 167.424 50.5908 167.334 50.6807C167.248 50.7705 167.131 50.8154 166.983 50.8154C166.834 50.8154 166.717 50.7705 166.631 50.6807C166.545 50.5908 166.502 50.4814 166.502 50.3525ZM173.2 53.8623C173.2 53.4795 173.057 53.1846 172.772 52.9775C172.487 52.7705 172.094 52.667 171.594 52.667C171.141 52.667 170.752 52.7842 170.428 53.0186C170.108 53.249 169.948 53.542 169.948 53.8975H169.25C169.25 53.3701 169.475 52.9346 169.924 52.5908C170.377 52.2471 170.934 52.0752 171.594 52.0752C172.321 52.0752 172.887 52.2314 173.293 52.5439C173.7 52.8564 173.903 53.2998 173.903 53.874C173.903 54.1787 173.809 54.4541 173.621 54.7002C173.434 54.9463 173.161 55.1377 172.801 55.2744C173.614 55.4971 174.02 56.001 174.02 56.7861C174.02 57.3564 173.799 57.8076 173.358 58.1396C172.916 58.4717 172.33 58.6377 171.6 58.6377C170.893 58.6377 170.307 58.46 169.842 58.1045C169.377 57.749 169.145 57.2842 169.145 56.71H169.848C169.848 57.0928 170.016 57.4131 170.352 57.6709C170.692 57.9248 171.108 58.0518 171.6 58.0518C172.135 58.0518 172.553 57.9404 172.854 57.7178C173.159 57.4912 173.311 57.1846 173.311 56.7979C173.311 56.3721 173.172 56.0654 172.895 55.8779C172.618 55.6904 172.194 55.5967 171.623 55.5967H170.657V54.9873H171.741C172.713 54.9639 173.2 54.5889 173.2 53.8623ZM175.42 57.9346L175.731 57.5303C176.223 56.8623 176.506 55.8857 176.58 54.6006L176.692 52.1865H180.436V57.9346H181.092V60.3896H180.395V58.5264H175.631V60.3896H174.957L174.963 57.9346H175.42ZM176.229 57.9346H179.733V52.8428H177.36L177.284 54.4893C177.213 56.001 176.862 57.1494 176.229 57.9346Z" fill="black"/>
<path d="M145.11 76.4502H146.44V77.042H145.11V79.1982H144.407V77.042H140.393V76.6436L144.342 70.667H145.11V76.4502ZM141.254 76.4502H144.407V71.5752L144.096 72.1143L141.254 76.4502ZM154.204 74.5342C154.204 74.1514 154.061 73.8564 153.776 73.6494C153.491 73.4424 153.098 73.3389 152.598 73.3389C152.145 73.3389 151.756 73.4561 151.432 73.6904C151.112 73.9209 150.952 74.2139 150.952 74.5693H150.254C150.254 74.042 150.479 73.6064 150.928 73.2627C151.381 72.9189 151.938 72.7471 152.598 72.7471C153.325 72.7471 153.891 72.9033 154.297 73.2158C154.704 73.5283 154.907 73.9717 154.907 74.5459C154.907 74.8506 154.813 75.126 154.625 75.3721C154.438 75.6182 154.164 75.8096 153.805 75.9463C154.618 76.1689 155.024 76.6729 155.024 77.458C155.024 78.0283 154.803 78.4795 154.362 78.8115C153.92 79.1436 153.334 79.3096 152.604 79.3096C151.897 79.3096 151.311 79.1318 150.846 78.7764C150.381 78.4209 150.149 77.9561 150.149 77.3818H150.852C150.852 77.7646 151.02 78.085 151.356 78.3428C151.696 78.5967 152.112 78.7236 152.604 78.7236C153.139 78.7236 153.557 78.6123 153.858 78.3896C154.163 78.1631 154.315 77.8564 154.315 77.4697C154.315 77.0439 154.176 76.7373 153.899 76.5498C153.621 76.3623 153.198 76.2686 152.627 76.2686H151.661V75.6592H152.745C153.717 75.6357 154.204 75.2607 154.204 74.5342ZM156.647 79.1982V72.8584H158.973C159.778 72.8584 160.395 73.0029 160.825 73.292C161.254 73.5771 161.469 73.9971 161.469 74.5518C161.469 74.8682 161.373 75.1514 161.182 75.4014C160.991 75.6475 160.711 75.8271 160.344 75.9404C160.758 76.0186 161.09 76.1963 161.34 76.4736C161.594 76.751 161.721 77.0732 161.721 77.4404C161.721 77.999 161.514 78.4326 161.1 78.7412C160.69 79.0459 160.108 79.1982 159.354 79.1982H156.647ZM157.344 76.2803V78.6123H159.377C159.905 78.6123 160.311 78.5107 160.596 78.3076C160.881 78.1045 161.024 77.8115 161.024 77.4287C161.024 77.0771 160.881 76.7979 160.596 76.5908C160.311 76.3838 159.905 76.2803 159.377 76.2803H157.344ZM157.344 75.6943H159.12C160.221 75.6787 160.772 75.3037 160.772 74.5693C160.772 74.1826 160.62 73.9014 160.315 73.7256C160.014 73.5459 159.567 73.4561 158.973 73.4561H157.344V75.6943ZM165.741 79.3154C165.202 79.3154 164.713 79.1826 164.276 78.917C163.842 78.6514 163.504 78.2822 163.262 77.8096C163.02 77.333 162.899 76.7998 162.899 76.21V75.958C162.899 75.3486 163.016 74.7998 163.25 74.3115C163.489 73.8232 163.819 73.4404 164.241 73.1631C164.663 72.8818 165.12 72.7412 165.612 72.7412C166.381 72.7412 166.991 73.0049 167.44 73.5322C167.893 74.0557 168.12 74.7725 168.12 75.6826V76.0752H163.596V76.21C163.596 76.9287 163.801 77.5283 164.211 78.0088C164.625 78.4854 165.145 78.7236 165.77 78.7236C166.145 78.7236 166.475 78.6553 166.76 78.5186C167.049 78.3818 167.311 78.1631 167.545 77.8623L167.985 78.1963C167.469 78.9424 166.721 79.3154 165.741 79.3154ZM165.612 73.3389C165.084 73.3389 164.639 73.5322 164.276 73.9189C163.916 74.3057 163.698 74.8252 163.62 75.4775H167.422V75.4014C167.403 74.792 167.229 74.2959 166.901 73.9131C166.573 73.5303 166.143 73.3389 165.612 73.3389ZM173.2 74.5342C173.2 74.1514 173.057 73.8564 172.772 73.6494C172.487 73.4424 172.094 73.3389 171.594 73.3389C171.141 73.3389 170.752 73.4561 170.428 73.6904C170.108 73.9209 169.948 74.2139 169.948 74.5693H169.25C169.25 74.042 169.475 73.6064 169.924 73.2627C170.377 72.9189 170.934 72.7471 171.594 72.7471C172.321 72.7471 172.887 72.9033 173.293 73.2158C173.7 73.5283 173.903 73.9717 173.903 74.5459C173.903 74.8506 173.809 75.126 173.621 75.3721C173.434 75.6182 173.161 75.8096 172.801 75.9463C173.614 76.1689 174.02 76.6729 174.02 77.458C174.02 78.0283 173.799 78.4795 173.358 78.8115C172.916 79.1436 172.33 79.3096 171.6 79.3096C170.893 79.3096 170.307 79.1318 169.842 78.7764C169.377 78.4209 169.145 77.9561 169.145 77.3818H169.848C169.848 77.7646 170.016 78.085 170.352 78.3428C170.692 78.5967 171.108 78.7236 171.6 78.7236C172.135 78.7236 172.553 78.6123 172.854 78.3896C173.159 78.1631 173.311 77.8564 173.311 77.4697C173.311 77.0439 173.172 76.7373 172.895 76.5498C172.618 76.3623 172.194 76.2686 171.623 76.2686H170.657V75.6592H171.741C172.713 75.6357 173.2 75.2607 173.2 74.5342ZM175.42 78.6064L175.731 78.2021C176.223 77.5342 176.506 76.5576 176.58 75.2725L176.692 72.8584H180.436V78.6064H181.092V81.0615H180.395V79.1982H175.631V81.0615H174.957L174.963 78.6064H175.42ZM176.229 78.6064H179.733V73.5146H177.36L177.284 75.1611C177.213 76.6729 176.862 77.8213 176.229 78.6064ZM183.219 75.1611H185.047C185.516 75.1611 185.926 75.2471 186.278 75.4189C186.633 75.5869 186.901 75.8213 187.08 76.1221C187.264 76.4229 187.356 76.7725 187.356 77.1709C187.356 77.7842 187.145 78.2764 186.723 78.6475C186.305 79.0146 185.739 79.1982 185.024 79.1982H182.522V72.8584H183.219V75.1611ZM183.219 75.7588V78.6064H185.036C185.539 78.6064 185.934 78.4795 186.219 78.2256C186.508 77.9717 186.653 77.624 186.653 77.1826C186.653 76.7607 186.512 76.4209 186.231 76.1631C185.954 75.9014 185.573 75.7666 185.088 75.7588H183.219ZM189.506 79.1982H188.803V72.8584H189.506V79.1982Z" fill="black"/>
<path d="M142.362 96.2236H143.088C143.491 96.2236 143.842 96.1533 144.143 96.0127C144.444 95.8682 144.672 95.6729 144.829 95.4268C144.989 95.1768 145.069 94.8896 145.069 94.5654C145.069 94.0186 144.914 93.5908 144.606 93.2822C144.297 92.9736 143.854 92.8193 143.276 92.8193C142.729 92.8193 142.28 92.9814 141.928 93.3057C141.58 93.626 141.407 94.0498 141.407 94.5771H140.704C140.704 94.1357 140.815 93.7334 141.038 93.3701C141.26 93.0029 141.569 92.7197 141.963 92.5205C142.358 92.3213 142.795 92.2217 143.276 92.2217C144.049 92.2217 144.659 92.4326 145.104 92.8545C145.549 93.2764 145.772 93.8545 145.772 94.5889C145.772 94.999 145.641 95.3779 145.379 95.7256C145.121 96.0693 144.766 96.3271 144.313 96.499C144.844 96.6475 145.246 96.9033 145.52 97.2666C145.793 97.626 145.93 98.0557 145.93 98.5557C145.93 99.2861 145.692 99.874 145.215 100.319C144.739 100.765 144.102 100.987 143.305 100.987C142.797 100.987 142.33 100.886 141.905 100.683C141.483 100.479 141.155 100.196 140.92 99.833C140.69 99.4658 140.575 99.04 140.575 98.5557H141.278C141.278 99.0986 141.467 99.542 141.846 99.8857C142.225 100.226 142.711 100.396 143.305 100.396C143.911 100.396 144.381 100.241 144.717 99.9326C145.057 99.6201 145.227 99.1689 145.227 98.5791C145.227 98.0088 145.043 97.5732 144.676 97.2725C144.313 96.9717 143.776 96.8213 143.065 96.8213H142.362V96.2236ZM154.204 96.2061C154.204 95.8232 154.061 95.5283 153.776 95.3213C153.491 95.1143 153.098 95.0107 152.598 95.0107C152.145 95.0107 151.756 95.1279 151.432 95.3623C151.112 95.5928 150.952 95.8857 150.952 96.2412H150.254C150.254 95.7139 150.479 95.2783 150.928 94.9346C151.381 94.5908 151.938 94.4189 152.598 94.4189C153.325 94.4189 153.891 94.5752 154.297 94.8877C154.704 95.2002 154.907 95.6436 154.907 96.2178C154.907 96.5225 154.813 96.7979 154.625 97.0439C154.438 97.29 154.164 97.4814 153.805 97.6182C154.618 97.8408 155.024 98.3447 155.024 99.1299C155.024 99.7002 154.803 100.151 154.362 100.483C153.92 100.815 153.334 100.981 152.604 100.981C151.897 100.981 151.311 100.804 150.846 100.448C150.381 100.093 150.149 99.6279 150.149 99.0537H150.852C150.852 99.4365 151.02 99.7568 151.356 100.015C151.696 100.269 152.112 100.396 152.604 100.396C153.139 100.396 153.557 100.284 153.858 100.062C154.163 99.835 154.315 99.5283 154.315 99.1416C154.315 98.7158 154.176 98.4092 153.899 98.2217C153.621 98.0342 153.198 97.9404 152.627 97.9404H151.661V97.3311H152.745C153.717 97.3076 154.204 96.9326 154.204 96.2061ZM156.647 100.87V94.5303H158.973C159.778 94.5303 160.395 94.6748 160.825 94.9639C161.254 95.249 161.469 95.6689 161.469 96.2236C161.469 96.54 161.373 96.8232 161.182 97.0732C160.991 97.3193 160.711 97.499 160.344 97.6123C160.758 97.6904 161.09 97.8682 161.34 98.1455C161.594 98.4229 161.721 98.7451 161.721 99.1123C161.721 99.6709 161.514 100.104 161.1 100.413C160.69 100.718 160.108 100.87 159.354 100.87H156.647ZM157.344 97.9521V100.284H159.377C159.905 100.284 160.311 100.183 160.596 99.9795C160.881 99.7764 161.024 99.4834 161.024 99.1006C161.024 98.749 160.881 98.4697 160.596 98.2627C160.311 98.0557 159.905 97.9521 159.377 97.9521H157.344ZM157.344 97.3662H159.12C160.221 97.3506 160.772 96.9756 160.772 96.2412C160.772 95.8545 160.62 95.5732 160.315 95.3975C160.014 95.2178 159.567 95.1279 158.973 95.1279H157.344V97.3662ZM165.741 100.987C165.202 100.987 164.713 100.854 164.276 100.589C163.842 100.323 163.504 99.9541 163.262 99.4814C163.02 99.0049 162.899 98.4717 162.899 97.8818V97.6299C162.899 97.0205 163.016 96.4717 163.25 95.9834C163.489 95.4951 163.819 95.1123 164.241 94.835C164.663 94.5537 165.12 94.4131 165.612 94.4131C166.381 94.4131 166.991 94.6768 167.44 95.2041C167.893 95.7275 168.12 96.4443 168.12 97.3545V97.7471H163.596V97.8818C163.596 98.6006 163.801 99.2002 164.211 99.6807C164.625 100.157 165.145 100.396 165.77 100.396C166.145 100.396 166.475 100.327 166.76 100.19C167.049 100.054 167.311 99.835 167.545 99.5342L167.985 99.8682C167.469 100.614 166.721 100.987 165.741 100.987ZM165.612 95.0107C165.084 95.0107 164.639 95.2041 164.276 95.5908C163.916 95.9775 163.698 96.4971 163.62 97.1494H167.422V97.0732C167.403 96.4639 167.229 95.9678 166.901 95.585C166.573 95.2021 166.143 95.0107 165.612 95.0107ZM173.2 96.2061C173.2 95.8232 173.057 95.5283 172.772 95.3213C172.487 95.1143 172.094 95.0107 171.594 95.0107C171.141 95.0107 170.752 95.1279 170.428 95.3623C170.108 95.5928 169.948 95.8857 169.948 96.2412H169.25C169.25 95.7139 169.475 95.2783 169.924 94.9346C170.377 94.5908 170.934 94.4189 171.594 94.4189C172.321 94.4189 172.887 94.5752 173.293 94.8877C173.7 95.2002 173.903 95.6436 173.903 96.2178C173.903 96.5225 173.809 96.7979 173.621 97.0439C173.434 97.29 173.161 97.4814 172.801 97.6182C173.614 97.8408 174.02 98.3447 174.02 99.1299C174.02 99.7002 173.799 100.151 173.358 100.483C172.916 100.815 172.33 100.981 171.6 100.981C170.893 100.981 170.307 100.804 169.842 100.448C169.377 100.093 169.145 99.6279 169.145 99.0537H169.848C169.848 99.4365 170.016 99.7568 170.352 100.015C170.692 100.269 171.108 100.396 171.6 100.396C172.135 100.396 172.553 100.284 172.854 100.062C173.159 99.835 173.311 99.5283 173.311 99.1416C173.311 98.7158 173.172 98.4092 172.895 98.2217C172.618 98.0342 172.194 97.9404 171.623 97.9404H170.657V97.3311H171.741C172.713 97.3076 173.2 96.9326 173.2 96.2061ZM175.42 100.278L175.731 99.874C176.223 99.2061 176.506 98.2295 176.58 96.9443L176.692 94.5303H180.436V100.278H181.092V102.733H180.395V100.87H175.631V102.733H174.957L174.963 100.278H175.42ZM176.229 100.278H179.733V95.1865H177.36L177.284 96.833C177.213 98.3447 176.862 99.4932 176.229 100.278ZM183.219 96.833H185.047C185.516 96.833 185.926 96.9189 186.278 97.0908C186.633 97.2588 186.901 97.4932 187.08 97.7939C187.264 98.0947 187.356 98.4443 187.356 98.8428C187.356 99.4561 187.145 99.9482 186.723 100.319C186.305 100.687 185.739 100.87 185.024 100.87H182.522V94.5303H183.219V96.833ZM183.219 97.4307V100.278H185.036C185.539 100.278 185.934 100.151 186.219 99.8975C186.508 99.6436 186.653 99.2959 186.653 98.8545C186.653 98.4326 186.512 98.0928 186.231 97.835C185.954 97.5732 185.573 97.4385 185.088 97.4307H183.219ZM189.506 100.87H188.803V94.5303H189.506V100.87Z" fill="black"/>
<path d="M146.147 122.542H140.803V122.003L143.727 118.687C144.211 118.128 144.547 117.667 144.735 117.304C144.922 116.94 145.016 116.587 145.016 116.243C145.016 115.704 144.858 115.278 144.541 114.966C144.225 114.649 143.789 114.491 143.235 114.491C142.661 114.491 142.196 114.675 141.84 115.042C141.489 115.409 141.313 115.886 141.313 116.472H140.616C140.616 115.991 140.723 115.554 140.938 115.159C141.157 114.765 141.465 114.456 141.864 114.233C142.266 114.007 142.723 113.894 143.235 113.894C144.016 113.894 144.625 114.099 145.063 114.509C145.504 114.919 145.725 115.478 145.725 116.185C145.725 116.583 145.6 117.019 145.35 117.491C145.104 117.964 144.668 118.554 144.043 119.261L141.664 121.95H146.147V122.542ZM154.204 117.878C154.204 117.495 154.061 117.2 153.776 116.993C153.491 116.786 153.098 116.683 152.598 116.683C152.145 116.683 151.756 116.8 151.432 117.034C151.112 117.265 150.952 117.558 150.952 117.913H150.254C150.254 117.386 150.479 116.95 150.928 116.606C151.381 116.263 151.938 116.091 152.598 116.091C153.325 116.091 153.891 116.247 154.297 116.56C154.704 116.872 154.907 117.315 154.907 117.89C154.907 118.194 154.813 118.47 154.625 118.716C154.438 118.962 154.164 119.153 153.805 119.29C154.618 119.513 155.024 120.017 155.024 120.802C155.024 121.372 154.803 121.823 154.362 122.155C153.92 122.487 153.334 122.653 152.604 122.653C151.897 122.653 151.311 122.476 150.846 122.12C150.381 121.765 150.149 121.3 150.149 120.726H150.852C150.852 121.108 151.02 121.429 151.356 121.687C151.696 121.94 152.112 122.067 152.604 122.067C153.139 122.067 153.557 121.956 153.858 121.733C154.163 121.507 154.315 121.2 154.315 120.813C154.315 120.388 154.176 120.081 153.899 119.894C153.621 119.706 153.198 119.612 152.627 119.612H151.661V119.003H152.745C153.717 118.979 154.204 118.604 154.204 117.878ZM156.647 122.542V116.202H158.973C159.778 116.202 160.395 116.347 160.825 116.636C161.254 116.921 161.469 117.341 161.469 117.896C161.469 118.212 161.373 118.495 161.182 118.745C160.991 118.991 160.711 119.171 160.344 119.284C160.758 119.362 161.09 119.54 161.34 119.817C161.594 120.095 161.721 120.417 161.721 120.784C161.721 121.343 161.514 121.776 161.1 122.085C160.69 122.39 160.108 122.542 159.354 122.542H156.647ZM157.344 119.624V121.956H159.377C159.905 121.956 160.311 121.854 160.596 121.651C160.881 121.448 161.024 121.155 161.024 120.772C161.024 120.421 160.881 120.142 160.596 119.935C160.311 119.728 159.905 119.624 159.377 119.624H157.344ZM157.344 119.038H159.12C160.221 119.022 160.772 118.647 160.772 117.913C160.772 117.526 160.62 117.245 160.315 117.069C160.014 116.89 159.567 116.8 158.973 116.8H157.344V119.038ZM165.741 122.659C165.202 122.659 164.713 122.526 164.276 122.261C163.842 121.995 163.504 121.626 163.262 121.153C163.02 120.677 162.899 120.144 162.899 119.554V119.302C162.899 118.692 163.016 118.144 163.25 117.655C163.489 117.167 163.819 116.784 164.241 116.507C164.663 116.226 165.12 116.085 165.612 116.085C166.381 116.085 166.991 116.349 167.44 116.876C167.893 117.399 168.12 118.116 168.12 119.026V119.419H163.596V119.554C163.596 120.272 163.801 120.872 164.211 121.353C164.625 121.829 165.145 122.067 165.77 122.067C166.145 122.067 166.475 121.999 166.76 121.862C167.049 121.726 167.311 121.507 167.545 121.206L167.985 121.54C167.469 122.286 166.721 122.659 165.741 122.659ZM165.612 116.683C165.084 116.683 164.639 116.876 164.276 117.263C163.916 117.649 163.698 118.169 163.62 118.821H167.422V118.745C167.403 118.136 167.229 117.64 166.901 117.257C166.573 116.874 166.143 116.683 165.612 116.683ZM173.2 117.878C173.2 117.495 173.057 117.2 172.772 116.993C172.487 116.786 172.094 116.683 171.594 116.683C171.141 116.683 170.752 116.8 170.428 117.034C170.108 117.265 169.948 117.558 169.948 117.913H169.25C169.25 117.386 169.475 116.95 169.924 116.606C170.377 116.263 170.934 116.091 171.594 116.091C172.321 116.091 172.887 116.247 173.293 116.56C173.7 116.872 173.903 117.315 173.903 117.89C173.903 118.194 173.809 118.47 173.621 118.716C173.434 118.962 173.161 119.153 172.801 119.29C173.614 119.513 174.02 120.017 174.02 120.802C174.02 121.372 173.799 121.823 173.358 122.155C172.916 122.487 172.33 122.653 171.6 122.653C170.893 122.653 170.307 122.476 169.842 122.12C169.377 121.765 169.145 121.3 169.145 120.726H169.848C169.848 121.108 170.016 121.429 170.352 121.687C170.692 121.94 171.108 122.067 171.6 122.067C172.135 122.067 172.553 121.956 172.854 121.733C173.159 121.507 173.311 121.2 173.311 120.813C173.311 120.388 173.172 120.081 172.895 119.894C172.618 119.706 172.194 119.612 171.623 119.612H170.657V119.003H171.741C172.713 118.979 173.2 118.604 173.2 117.878ZM175.42 121.95L175.731 121.546C176.223 120.878 176.506 119.901 176.58 118.616L176.692 116.202H180.436V121.95H181.092V124.405H180.395V122.542H175.631V124.405H174.957L174.963 121.95H175.42ZM176.229 121.95H179.733V116.858H177.36L177.284 118.505C177.213 120.017 176.862 121.165 176.229 121.95ZM183.219 118.505H185.047C185.516 118.505 185.926 118.591 186.278 118.763C186.633 118.931 186.901 119.165 187.08 119.466C187.264 119.767 187.356 120.116 187.356 120.515C187.356 121.128 187.145 121.62 186.723 121.991C186.305 122.358 185.739 122.542 185.024 122.542H182.522V116.202H183.219V118.505ZM183.219 119.103V121.95H185.036C185.539 121.95 185.934 121.823 186.219 121.569C186.508 121.315 186.653 120.968 186.653 120.526C186.653 120.104 186.512 119.765 186.231 119.507C185.954 119.245 185.573 119.11 185.088 119.103H183.219ZM189.506 122.542H188.803V116.202H189.506V122.542Z" fill="black"/>
<path d="M144.067 143.214H143.364V135.526L141.043 136.388V135.731L143.95 134.653H144.067V143.214ZM154.204 138.55C154.204 138.167 154.061 137.872 153.776 137.665C153.491 137.458 153.098 137.354 152.598 137.354C152.145 137.354 151.756 137.472 151.432 137.706C151.112 137.937 150.952 138.229 150.952 138.585H150.254C150.254 138.058 150.479 137.622 150.928 137.278C151.381 136.935 151.938 136.763 152.598 136.763C153.325 136.763 153.891 136.919 154.297 137.231C154.704 137.544 154.907 137.987 154.907 138.562C154.907 138.866 154.813 139.142 154.625 139.388C154.438 139.634 154.164 139.825 153.805 139.962C154.618 140.185 155.024 140.688 155.024 141.474C155.024 142.044 154.803 142.495 154.362 142.827C153.92 143.159 153.334 143.325 152.604 143.325C151.897 143.325 151.311 143.147 150.846 142.792C150.381 142.437 150.149 141.972 150.149 141.397H150.852C150.852 141.78 151.02 142.101 151.356 142.358C151.696 142.612 152.112 142.739 152.604 142.739C153.139 142.739 153.557 142.628 153.858 142.405C154.163 142.179 154.315 141.872 154.315 141.485C154.315 141.06 154.176 140.753 153.899 140.565C153.621 140.378 153.198 140.284 152.627 140.284H151.661V139.675H152.745C153.717 139.651 154.204 139.276 154.204 138.55ZM156.647 143.214V136.874H158.973C159.778 136.874 160.395 137.019 160.825 137.308C161.254 137.593 161.469 138.013 161.469 138.567C161.469 138.884 161.373 139.167 161.182 139.417C160.991 139.663 160.711 139.843 160.344 139.956C160.758 140.034 161.09 140.212 161.34 140.489C161.594 140.767 161.721 141.089 161.721 141.456C161.721 142.015 161.514 142.448 161.1 142.757C160.69 143.062 160.108 143.214 159.354 143.214H156.647ZM157.344 140.296V142.628H159.377C159.905 142.628 160.311 142.526 160.596 142.323C160.881 142.12 161.024 141.827 161.024 141.444C161.024 141.093 160.881 140.813 160.596 140.606C160.311 140.399 159.905 140.296 159.377 140.296H157.344ZM157.344 139.71H159.12C160.221 139.694 160.772 139.319 160.772 138.585C160.772 138.198 160.62 137.917 160.315 137.741C160.014 137.562 159.567 137.472 158.973 137.472H157.344V139.71ZM165.741 143.331C165.202 143.331 164.713 143.198 164.276 142.933C163.842 142.667 163.504 142.298 163.262 141.825C163.02 141.349 162.899 140.815 162.899 140.226V139.974C162.899 139.364 163.016 138.815 163.25 138.327C163.489 137.839 163.819 137.456 164.241 137.179C164.663 136.897 165.12 136.757 165.612 136.757C166.381 136.757 166.991 137.021 167.44 137.548C167.893 138.071 168.12 138.788 168.12 139.698V140.091H163.596V140.226C163.596 140.944 163.801 141.544 164.211 142.024C164.625 142.501 165.145 142.739 165.77 142.739C166.145 142.739 166.475 142.671 166.76 142.534C167.049 142.397 167.311 142.179 167.545 141.878L167.985 142.212C167.469 142.958 166.721 143.331 165.741 143.331ZM165.612 137.354C165.084 137.354 164.639 137.548 164.276 137.935C163.916 138.321 163.698 138.841 163.62 139.493H167.422V139.417C167.403 138.808 167.229 138.312 166.901 137.929C166.573 137.546 166.143 137.354 165.612 137.354ZM173.2 138.55C173.2 138.167 173.057 137.872 172.772 137.665C172.487 137.458 172.094 137.354 171.594 137.354C171.141 137.354 170.752 137.472 170.428 137.706C170.108 137.937 169.948 138.229 169.948 138.585H169.25C169.25 138.058 169.475 137.622 169.924 137.278C170.377 136.935 170.934 136.763 171.594 136.763C172.321 136.763 172.887 136.919 173.293 137.231C173.7 137.544 173.903 137.987 173.903 138.562C173.903 138.866 173.809 139.142 173.621 139.388C173.434 139.634 173.161 139.825 172.801 139.962C173.614 140.185 174.02 140.688 174.02 141.474C174.02 142.044 173.799 142.495 173.358 142.827C172.916 143.159 172.33 143.325 171.6 143.325C170.893 143.325 170.307 143.147 169.842 142.792C169.377 142.437 169.145 141.972 169.145 141.397H169.848C169.848 141.78 170.016 142.101 170.352 142.358C170.692 142.612 171.108 142.739 171.6 142.739C172.135 142.739 172.553 142.628 172.854 142.405C173.159 142.179 173.311 141.872 173.311 141.485C173.311 141.06 173.172 140.753 172.895 140.565C172.618 140.378 172.194 140.284 171.623 140.284H170.657V139.675H171.741C172.713 139.651 173.2 139.276 173.2 138.55ZM175.42 142.622L175.731 142.218C176.223 141.55 176.506 140.573 176.58 139.288L176.692 136.874H180.436V142.622H181.092V145.077H180.395V143.214H175.631V145.077H174.957L174.963 142.622H175.42ZM176.229 142.622H179.733V137.53H177.36L177.284 139.177C177.213 140.688 176.862 141.837 176.229 142.622ZM186.448 143.214C186.377 143.015 186.332 142.72 186.313 142.329C186.067 142.649 185.752 142.897 185.37 143.073C184.991 143.245 184.588 143.331 184.163 143.331C183.553 143.331 183.059 143.161 182.68 142.821C182.305 142.481 182.118 142.052 182.118 141.532C182.118 140.915 182.373 140.427 182.885 140.067C183.401 139.708 184.118 139.528 185.036 139.528H186.307V138.808C186.307 138.354 186.166 137.999 185.885 137.741C185.608 137.479 185.202 137.349 184.666 137.349C184.178 137.349 183.774 137.474 183.454 137.724C183.133 137.974 182.973 138.274 182.973 138.626L182.27 138.62C182.27 138.116 182.504 137.681 182.973 137.313C183.442 136.942 184.018 136.757 184.702 136.757C185.409 136.757 185.965 136.935 186.371 137.29C186.782 137.642 186.993 138.134 187.004 138.767V141.767C187.004 142.38 187.069 142.839 187.198 143.144V143.214H186.448ZM184.245 142.71C184.713 142.71 185.131 142.597 185.498 142.37C185.87 142.144 186.139 141.841 186.307 141.462V140.067H185.053C184.354 140.075 183.807 140.204 183.413 140.454C183.018 140.7 182.821 141.04 182.821 141.474C182.821 141.829 182.952 142.124 183.213 142.358C183.479 142.593 183.823 142.71 184.245 142.71Z" fill="black"/>
<path d="M415.511 58.6895H409.921V57.9102L412.874 54.6289C413.312 54.1328 413.613 53.7305 413.777 53.4219C413.945 53.1094 414.029 52.7871 414.029 52.4551C414.029 52.0098 413.894 51.6445 413.624 51.3594C413.355 51.0742 412.995 50.9316 412.546 50.9316C412.007 50.9316 411.587 51.0859 411.286 51.3945C410.99 51.6992 410.841 52.125 410.841 52.6719H409.757C409.757 51.8867 410.009 51.252 410.513 50.7676C411.021 50.2832 411.699 50.041 412.546 50.041C413.339 50.041 413.966 50.25 414.427 50.668C414.888 51.082 415.119 51.6348 415.119 52.3262C415.119 53.166 414.583 54.166 413.513 55.3262L411.228 57.8047H415.511V58.6895ZM422.167 50.7676L418.634 58.6895H417.497L421.019 51.0488H416.402V50.1582H422.167V50.7676Z" fill="black"/>
<path d="M413.484 79.6895H412.394V72.4648L410.208 73.2676V72.2832L413.314 71.1172H413.484V79.6895Z" fill="black"/>
<path d="M415.271 97.0508C415.271 98.3203 415.054 99.2637 414.62 99.8809C414.187 100.498 413.509 100.807 412.587 100.807C411.677 100.807 411.003 100.506 410.566 99.9043C410.128 99.2988 409.902 98.3965 409.886 97.1973V95.75C409.886 94.4961 410.103 93.5645 410.536 92.9551C410.97 92.3457 411.65 92.041 412.576 92.041C413.494 92.041 414.169 92.3359 414.603 92.9258C415.036 93.5117 415.259 94.418 415.271 95.6445V97.0508ZM414.187 95.5684C414.187 94.6504 414.058 93.9824 413.8 93.5645C413.542 93.1426 413.134 92.9316 412.576 92.9316C412.021 92.9316 411.617 93.1406 411.363 93.5586C411.109 93.9766 410.978 94.6191 410.97 95.4863V97.2207C410.97 98.1426 411.103 98.8242 411.369 99.2656C411.638 99.7031 412.044 99.9219 412.587 99.9219C413.122 99.9219 413.519 99.7148 413.777 99.3008C414.038 98.8867 414.175 98.2344 414.187 97.3438V95.5684Z" fill="black"/>
<path d="M415.271 118.051C415.271 119.32 415.054 120.264 414.62 120.881C414.187 121.498 413.509 121.807 412.587 121.807C411.677 121.807 411.003 121.506 410.566 120.904C410.128 120.299 409.902 119.396 409.886 118.197V116.75C409.886 115.496 410.103 114.564 410.536 113.955C410.97 113.346 411.65 113.041 412.576 113.041C413.494 113.041 414.169 113.336 414.603 113.926C415.036 114.512 415.259 115.418 415.271 116.645V118.051ZM414.187 116.568C414.187 115.65 414.058 114.982 413.8 114.564C413.542 114.143 413.134 113.932 412.576 113.932C412.021 113.932 411.617 114.141 411.363 114.559C411.109 114.977 410.978 115.619 410.97 116.486V118.221C410.97 119.143 411.103 119.824 411.369 120.266C411.638 120.703 412.044 120.922 412.587 120.922C413.122 120.922 413.519 120.715 413.777 120.301C414.038 119.887 414.175 119.234 414.187 118.344V116.568Z" fill="black"/>
<path d="M416.271 141.051C416.271 142.32 416.054 143.264 415.62 143.881C415.187 144.498 414.509 144.807 413.587 144.807C412.677 144.807 412.003 144.506 411.566 143.904C411.128 143.299 410.902 142.396 410.886 141.197V139.75C410.886 138.496 411.103 137.564 411.536 136.955C411.97 136.346 412.65 136.041 413.576 136.041C414.494 136.041 415.169 136.336 415.603 136.926C416.036 137.512 416.259 138.418 416.271 139.645V141.051ZM415.187 139.568C415.187 138.65 415.058 137.982 414.8 137.564C414.542 137.143 414.134 136.932 413.576 136.932C413.021 136.932 412.617 137.141 412.363 137.559C412.109 137.977 411.978 138.619 411.97 139.486V141.221C411.97 142.143 412.103 142.824 412.369 143.266C412.638 143.703 413.044 143.922 413.587 143.922C414.122 143.922 414.519 143.715 414.777 143.301C415.038 142.887 415.175 142.234 415.187 141.344V139.568Z" fill="black"/>
<rect opacity="0.1" x="200.229" y="52" width="200" height="4" rx="2" fill="url(#paint0_linear_111_34582)"/>
<rect x="200.198" y="52.0513" width="135.99" height="4" rx="2" fill="url(#paint1_linear_111_34582)"/>
<rect x="200" y="72.5483" width="11.234" height="4" rx="2" fill="url(#paint2_linear_111_34582)"/>
<rect opacity="0.1" x="200.229" y="72" width="200" height="4" rx="2" fill="url(#paint3_linear_111_34582)"/>
<rect opacity="0.1" x="200.229" y="94" width="200" height="4" rx="2" fill="url(#paint4_linear_111_34582)"/>
<rect opacity="0.1" x="200.229" y="115" width="200" height="4" rx="2" fill="url(#paint5_linear_111_34582)"/>
<rect opacity="0.1" x="200.229" y="137" width="200" height="4" rx="2" fill="url(#paint6_linear_111_34582)"/>
<circle opacity="0.1" cx="83.5" cy="78" r="28" fill="url(#paint7_linear_111_34582)"/>
<path d="M69.9826 79.5386H71.5734V81.2524H69.9826V84.1001H67.8469V81.2524H62.3185L62.257 79.9517L67.7766 71.3032H69.9826V79.5386ZM64.4982 79.5386H67.8469V74.1948L67.6887 74.4761L64.4982 79.5386ZM74.4562 81.8501C74.8547 81.8501 75.1623 81.9644 75.3791 82.1929C75.5959 82.4155 75.7043 82.6968 75.7043 83.0366C75.7043 83.3706 75.5959 83.6489 75.3791 83.8716C75.1623 84.0884 74.8547 84.1968 74.4562 84.1968C74.0754 84.1968 73.7736 84.0884 73.551 83.8716C73.3283 83.6548 73.217 83.3765 73.217 83.0366C73.217 82.6968 73.3254 82.4155 73.5422 82.1929C73.759 81.9644 74.0637 81.8501 74.4562 81.8501ZM84.0715 78.7476C83.3566 79.5034 82.5217 79.8813 81.5666 79.8813C80.4416 79.8813 79.5451 79.4888 78.8771 78.7036C78.2092 77.9126 77.8752 76.8755 77.8752 75.5923C77.8752 74.7485 78.0451 73.9839 78.3849 73.2983C78.7248 72.6128 79.2082 72.0796 79.8351 71.6987C80.4621 71.3179 81.1887 71.1274 82.0148 71.1274C83.3039 71.1274 84.3264 71.6079 85.0822 72.5688C85.8381 73.5298 86.216 74.8159 86.216 76.4272V77.0249C86.216 79.3335 85.6945 81.0942 84.6516 82.3071C83.6086 83.52 82.0529 84.1353 79.9846 84.1528H79.7297V82.3862H80.0373C81.2971 82.3687 82.2639 82.0669 82.9377 81.481C83.6115 80.8892 83.9894 79.978 84.0715 78.7476ZM82.0148 78.2114C82.4426 78.2114 82.8439 78.0884 83.2189 77.8423C83.5939 77.5962 83.884 77.2563 84.0891 76.8228V75.9878C84.0891 75.0444 83.8957 74.2856 83.509 73.7114C83.1223 73.1372 82.6213 72.8501 82.006 72.8501C81.3908 72.8501 80.8986 73.105 80.5295 73.6147C80.1662 74.1187 79.9846 74.7573 79.9846 75.5308C79.9846 76.3335 80.1691 76.981 80.5383 77.4731C80.9074 77.9653 81.3996 78.2114 82.0148 78.2114Z" fill="black"/>
<g clip-path="url(#clip0_111_34582)">
<path d="M98.689 72.8726L100.193 76.1529L103.656 76.6279L101.123 79.1303L101.759 82.7043L98.689 80.9705L95.6189 82.7043L96.2549 79.1303L93.7215 76.6279L97.1846 76.1529L98.689 72.8726Z" fill="url(#paint8_linear_111_34582)"/>
<path d="M105.171 76.4641C105.412 76.2174 105.272 75.8015 104.932 75.7495L100.878 75.131L99.0721 71.2883C98.9197 70.9638 98.4581 70.9638 98.3056 71.2883L96.4999 75.131L92.4461 75.7495C92.1052 75.8015 91.966 76.2174 92.207 76.4641L95.1531 79.4807L94.4598 83.7287C94.4029 84.0775 94.7731 84.3385 95.0825 84.1676L98.6889 82.1761L102.295 84.1676C102.605 84.3385 102.975 84.0775 102.918 83.7286L102.224 79.4807L105.171 76.4641ZM98.6889 81.1526L95.4116 82.9899L96.0372 79.2826L93.2156 76.4024L97.0319 75.9061L98.6889 72.3748L100.331 75.9061L104.134 76.4456L101.341 79.2963L101.925 83.0036L98.6889 81.1526Z" fill="black"/>
</g>
<path d="M54.7002 122.307H54.0342V118.558H49.5654V122.307H48.9048V114.486H49.5654V117.999H54.0342V114.486H54.7002V122.307ZM60.2109 122.307C60.1465 122.124 60.1053 121.854 60.0874 121.496C59.8618 121.789 59.5736 122.017 59.2227 122.178C58.8753 122.335 58.5065 122.414 58.1162 122.414C57.5576 122.414 57.1047 122.258 56.7573 121.947C56.4136 121.635 56.2417 121.241 56.2417 120.765C56.2417 120.199 56.4762 119.752 56.9453 119.422C57.418 119.093 58.075 118.928 58.9165 118.928H60.082V118.268C60.082 117.852 59.9531 117.526 59.6953 117.29C59.4411 117.05 59.0687 116.93 58.5781 116.93C58.1305 116.93 57.7599 117.045 57.4663 117.274C57.1727 117.503 57.0259 117.779 57.0259 118.101L56.3813 118.096C56.3813 117.634 56.5962 117.235 57.0259 116.898C57.4556 116.558 57.9837 116.388 58.6104 116.388C59.2585 116.388 59.7687 116.551 60.1411 116.876C60.5171 117.199 60.7104 117.65 60.7212 118.23V120.98C60.7212 121.542 60.7803 121.963 60.8984 122.242V122.307H60.2109ZM58.1914 121.845C58.6211 121.845 59.0042 121.741 59.3408 121.533C59.681 121.326 59.9281 121.048 60.082 120.701V119.422H58.9326C58.2917 119.43 57.7904 119.548 57.4287 119.777C57.0671 120.002 56.8862 120.314 56.8862 120.711C56.8862 121.037 57.0062 121.308 57.2461 121.522C57.4896 121.737 57.8047 121.845 58.1914 121.845ZM64.7603 119.315C64.7603 118.756 64.8677 118.253 65.0825 117.806C65.3009 117.358 65.6071 117.011 66.001 116.764C66.3984 116.513 66.8478 116.388 67.3491 116.388C68.1226 116.388 68.7492 116.66 69.229 117.204C69.7088 117.745 69.9487 118.463 69.9487 119.358V119.492C69.9487 120.054 69.8395 120.561 69.6211 121.012C69.4062 121.46 69.1019 121.805 68.708 122.049C68.3141 122.292 67.8647 122.414 67.3599 122.414C66.59 122.414 65.9634 122.144 65.48 121.603C65.0002 121.059 64.7603 120.339 64.7603 119.444V119.315ZM65.4048 119.492C65.4048 120.187 65.5838 120.758 65.9419 121.206C66.3035 121.65 66.7762 121.872 67.3599 121.872C67.9399 121.872 68.409 121.65 68.7671 121.206C69.1287 120.758 69.3096 120.169 69.3096 119.438V119.315C69.3096 118.871 69.2272 118.465 69.0625 118.096C68.8978 117.727 68.6668 117.442 68.3696 117.242C68.0724 117.038 67.7323 116.936 67.3491 116.936C66.7762 116.936 66.3089 117.161 65.9473 117.612C65.5856 118.06 65.4048 118.647 65.4048 119.374V119.492ZM73.4292 121.872C73.8768 121.872 74.251 121.746 74.5518 121.496C74.8561 121.241 75.0208 120.914 75.0459 120.513H75.6636C75.6457 120.867 75.5347 121.191 75.3306 121.485C75.1265 121.775 74.8543 122.002 74.5142 122.167C74.1776 122.332 73.8159 122.414 73.4292 122.414C72.6665 122.414 72.0614 122.149 71.6138 121.619C71.1698 121.089 70.9478 120.377 70.9478 119.481V119.288C70.9478 118.715 71.048 118.208 71.2485 117.768C71.4491 117.328 71.7355 116.987 72.1079 116.748C72.4839 116.508 72.9225 116.388 73.4238 116.388C74.0612 116.388 74.5858 116.577 74.9976 116.957C75.4129 117.337 75.6349 117.836 75.6636 118.456H75.0459C75.0173 118.001 74.8525 117.634 74.5518 117.354C74.2546 117.075 73.8786 116.936 73.4238 116.936C72.8438 116.936 72.3926 117.145 72.0703 117.564C71.7516 117.983 71.5923 118.57 71.5923 119.326V119.514C71.5923 120.255 71.7516 120.833 72.0703 121.249C72.3926 121.664 72.8455 121.872 73.4292 121.872ZM81.416 122.307H80.7715V119.643H77.6401V122.307H76.9956V116.495H77.6401V119.1H80.7715V116.495H81.416V122.307ZM82.7856 119.315C82.7856 118.756 82.8931 118.253 83.1079 117.806C83.3263 117.358 83.6325 117.011 84.0264 116.764C84.4238 116.513 84.8732 116.388 85.3745 116.388C86.1479 116.388 86.7746 116.66 87.2544 117.204C87.7342 117.745 87.9741 118.463 87.9741 119.358V119.492C87.9741 120.054 87.8649 120.561 87.6465 121.012C87.4316 121.46 87.1273 121.805 86.7334 122.049C86.3395 122.292 85.8901 122.414 85.3853 122.414C84.6154 122.414 83.9888 122.144 83.5054 121.603C83.0256 121.059 82.7856 120.339 82.7856 119.444V119.315ZM83.4302 119.492C83.4302 120.187 83.6092 120.758 83.9673 121.206C84.3289 121.65 84.8016 121.872 85.3853 121.872C85.9653 121.872 86.4344 121.65 86.7925 121.206C87.1541 120.758 87.335 120.169 87.335 119.438V119.315C87.335 118.871 87.2526 118.465 87.0879 118.096C86.9232 117.727 86.6922 117.442 86.395 117.242C86.0978 117.038 85.7576 116.936 85.3745 116.936C84.8016 116.936 84.3343 117.161 83.9727 117.612C83.611 118.06 83.4302 118.647 83.4302 119.374V119.492ZM89.376 122.307V116.495H91.5083C92.2459 116.495 92.8117 116.628 93.2056 116.893C93.5994 117.154 93.7964 117.539 93.7964 118.047C93.7964 118.337 93.7087 118.597 93.5332 118.826C93.3577 119.052 93.1017 119.216 92.7651 119.32C93.1447 119.392 93.4491 119.555 93.6782 119.809C93.911 120.063 94.0273 120.359 94.0273 120.695C94.0273 121.207 93.8376 121.605 93.458 121.888C93.082 122.167 92.5485 122.307 91.8574 122.307H89.376ZM90.0151 119.632V121.77H91.8789C92.3623 121.77 92.7347 121.676 92.9961 121.49C93.2575 121.304 93.3882 121.035 93.3882 120.685C93.3882 120.362 93.2575 120.106 92.9961 119.917C92.7347 119.727 92.3623 119.632 91.8789 119.632H90.0151ZM90.0151 119.095H91.6426C92.6523 119.08 93.1572 118.737 93.1572 118.063C93.1572 117.709 93.0176 117.451 92.7383 117.29C92.4626 117.125 92.0526 117.043 91.5083 117.043H90.0151V119.095ZM99.1299 122.307C99.0654 122.124 99.0243 121.854 99.0063 121.496C98.7808 121.789 98.4925 122.017 98.1416 122.178C97.7943 122.335 97.4255 122.414 97.0352 122.414C96.4766 122.414 96.0236 122.258 95.6763 121.947C95.3325 121.635 95.1606 121.241 95.1606 120.765C95.1606 120.199 95.3952 119.752 95.8643 119.422C96.3369 119.093 96.994 118.928 97.8354 118.928H99.001V118.268C99.001 117.852 98.8721 117.526 98.6143 117.29C98.36 117.05 97.9876 116.93 97.4971 116.93C97.0495 116.93 96.6789 117.045 96.3853 117.274C96.0916 117.503 95.9448 117.779 95.9448 118.101L95.3003 118.096C95.3003 117.634 95.5151 117.235 95.9448 116.898C96.3745 116.558 96.9027 116.388 97.5293 116.388C98.1774 116.388 98.6877 116.551 99.0601 116.876C99.436 117.199 99.6294 117.65 99.6401 118.23V120.98C99.6401 121.542 99.6992 121.963 99.8174 122.242V122.307H99.1299ZM97.1104 121.845C97.54 121.845 97.9232 121.741 98.2598 121.533C98.5999 121.326 98.847 121.048 99.001 120.701V119.422H97.8516C97.2106 119.43 96.7093 119.548 96.3477 119.777C95.986 120.002 95.8052 120.314 95.8052 120.711C95.8052 121.037 95.9251 121.308 96.165 121.522C96.4085 121.737 96.7236 121.845 97.1104 121.845ZM105.822 122.307H105.178V119.643H102.046V122.307H101.402V116.495H102.046V119.1H105.178V116.495H105.822V122.307ZM111.365 116.495H112.01V122.307H111.365V117.532L108.229 122.307H107.589V116.495H108.229V121.275L111.365 116.495ZM117.553 116.495H118.197V122.307H117.553V117.532L114.416 122.307H113.777V116.495H114.416V121.275L117.553 116.495ZM59.8994 135.307H55.001V134.812L57.6812 131.772C58.1252 131.26 58.4331 130.838 58.605 130.505C58.7769 130.172 58.8628 129.848 58.8628 129.533C58.8628 129.039 58.7178 128.648 58.4277 128.362C58.1377 128.072 57.7384 127.927 57.23 127.927C56.7036 127.927 56.2775 128.095 55.9517 128.432C55.6294 128.768 55.4683 129.205 55.4683 129.742H54.8291C54.8291 129.302 54.9276 128.901 55.1245 128.539C55.325 128.177 55.6079 127.895 55.9731 127.69C56.342 127.483 56.7609 127.379 57.23 127.379C57.9461 127.379 58.5047 127.567 58.9058 127.943C59.3104 128.319 59.5127 128.831 59.5127 129.479C59.5127 129.844 59.3981 130.243 59.1689 130.677C58.9434 131.11 58.5441 131.651 57.9712 132.299L55.7905 134.764H59.8994V135.307ZM65.7109 129.5C65.7109 129.905 65.5928 130.269 65.3564 130.591C65.1201 130.91 64.8086 131.144 64.4219 131.294C64.873 131.448 65.2347 131.697 65.5068 132.041C65.779 132.385 65.915 132.782 65.915 133.233C65.915 133.903 65.6877 134.435 65.2329 134.829C64.7782 135.219 64.1766 135.414 63.4282 135.414C62.6727 135.414 62.0675 135.219 61.6128 134.829C61.1616 134.438 60.936 133.907 60.936 133.233C60.936 132.789 61.0667 132.394 61.3281 132.046C61.5895 131.699 61.9476 131.448 62.4023 131.294C62.0156 131.144 61.7077 130.91 61.4785 130.591C61.2493 130.269 61.1348 129.905 61.1348 129.5C61.1348 128.852 61.3424 128.337 61.7578 127.954C62.1768 127.57 62.73 127.379 63.4175 127.379C64.105 127.379 64.6582 127.572 65.0771 127.959C65.4997 128.346 65.7109 128.86 65.7109 129.5ZM65.2705 133.239C65.2705 132.752 65.0968 132.353 64.7495 132.041C64.4022 131.726 63.9582 131.568 63.4175 131.568C62.8768 131.568 62.4346 131.722 62.0908 132.03C61.7471 132.338 61.5752 132.741 61.5752 133.239C61.5752 133.736 61.7417 134.134 62.0747 134.431C62.4077 134.725 62.8589 134.872 63.4282 134.872C63.9832 134.872 64.429 134.725 64.7656 134.431C65.1022 134.138 65.2705 133.74 65.2705 133.239ZM65.0664 129.495C65.0664 129.048 64.9106 128.675 64.5991 128.378C64.2912 128.077 63.8973 127.927 63.4175 127.927C62.9305 127.927 62.5348 128.072 62.2305 128.362C61.9297 128.648 61.7793 129.026 61.7793 129.495C61.7793 129.953 61.9297 130.322 62.2305 130.602C62.5348 130.881 62.9323 131.021 63.4229 131.021C63.9062 131.021 64.3001 130.881 64.6045 130.602C64.9124 130.319 65.0664 129.95 65.0664 129.495ZM69.6265 132.315C69.6265 131.756 69.7339 131.253 69.9487 130.806C70.1672 130.358 70.4733 130.011 70.8672 129.764C71.2646 129.513 71.714 129.388 72.2153 129.388C72.9888 129.388 73.6154 129.66 74.0952 130.204C74.575 130.745 74.8149 131.463 74.8149 132.358V132.492C74.8149 133.054 74.7057 133.561 74.4873 134.012C74.2725 134.46 73.9681 134.805 73.5742 135.049C73.1803 135.292 72.731 135.414 72.2261 135.414C71.4562 135.414 70.8296 135.144 70.3462 134.603C69.8664 134.059 69.6265 133.339 69.6265 132.444V132.315ZM70.271 132.492C70.271 133.187 70.45 133.758 70.8081 134.206C71.1698 134.65 71.6424 134.872 72.2261 134.872C72.8062 134.872 73.2752 134.65 73.6333 134.206C73.995 133.758 74.1758 133.169 74.1758 132.438V132.315C74.1758 131.871 74.0934 131.465 73.9287 131.096C73.764 130.727 73.533 130.442 73.2358 130.242C72.9386 130.038 72.5985 129.936 72.2153 129.936C71.6424 129.936 71.1751 130.161 70.8135 130.612C70.4518 131.06 70.271 131.647 70.271 132.374V132.492ZM80.2021 130.043H78.0859V135.307H77.4414V130.043H75.4058V129.495H80.2021V130.043ZM84.6655 131.031C84.6655 130.68 84.5348 130.41 84.2734 130.22C84.012 130.03 83.6522 129.936 83.1938 129.936C82.7785 129.936 82.4222 130.043 82.125 130.258C81.8314 130.469 81.6846 130.738 81.6846 131.063H81.0454C81.0454 130.58 81.2513 130.181 81.6631 129.866C82.0785 129.551 82.5887 129.393 83.1938 129.393C83.8599 129.393 84.3791 129.536 84.7515 129.823C85.1239 130.109 85.3101 130.516 85.3101 131.042C85.3101 131.321 85.2241 131.574 85.0522 131.799C84.8804 132.025 84.6297 132.2 84.3003 132.326C85.0451 132.53 85.4175 132.992 85.4175 133.711C85.4175 134.234 85.2152 134.648 84.8105 134.952C84.4059 135.257 83.8688 135.409 83.1992 135.409C82.5511 135.409 82.014 135.246 81.5879 134.92C81.1618 134.594 80.9487 134.168 80.9487 133.642H81.5933C81.5933 133.993 81.7472 134.286 82.0552 134.522C82.3667 134.755 82.748 134.872 83.1992 134.872C83.6898 134.872 84.0729 134.77 84.3486 134.565C84.6279 134.358 84.7676 134.077 84.7676 133.722C84.7676 133.332 84.6405 133.051 84.3862 132.879C84.132 132.707 83.7435 132.621 83.2207 132.621H82.3345V132.062H83.3281C84.2197 132.041 84.6655 131.697 84.6655 131.031ZM87.5444 131.606H89.2202C89.6499 131.606 90.0259 131.685 90.3481 131.842C90.674 131.996 90.9193 132.211 91.084 132.487C91.2523 132.763 91.3364 133.083 91.3364 133.448C91.3364 134.01 91.1431 134.462 90.7563 134.802C90.3732 135.138 89.854 135.307 89.1987 135.307H86.9053V129.495H87.5444V131.606ZM87.5444 132.154V134.764H89.2095C89.6714 134.764 90.033 134.648 90.2944 134.415C90.5594 134.182 90.6919 133.864 90.6919 133.459C90.6919 133.072 90.563 132.761 90.3052 132.524C90.0509 132.285 89.7018 132.161 89.2578 132.154H87.5444ZM93.3076 135.307H92.6631V129.495H93.3076V135.307ZM95.166 135.307V129.495H97.2983C98.036 129.495 98.6017 129.628 98.9956 129.893C99.3895 130.154 99.5864 130.539 99.5864 131.047C99.5864 131.337 99.4987 131.597 99.3232 131.826C99.1478 132.052 98.8918 132.216 98.5552 132.32C98.9347 132.392 99.2391 132.555 99.4683 132.809C99.701 133.063 99.8174 133.359 99.8174 133.695C99.8174 134.207 99.6276 134.605 99.248 134.888C98.8721 135.167 98.3385 135.307 97.6475 135.307H95.166ZM95.8052 132.632V134.77H97.6689C98.1523 134.77 98.5247 134.676 98.7861 134.49C99.0475 134.304 99.1782 134.035 99.1782 133.685C99.1782 133.362 99.0475 133.106 98.7861 132.917C98.5247 132.727 98.1523 132.632 97.6689 132.632H95.8052ZM95.8052 132.095H97.4326C98.4424 132.08 98.9473 131.737 98.9473 131.063C98.9473 130.709 98.8076 130.451 98.5283 130.29C98.2526 130.125 97.8426 130.043 97.2983 130.043H95.8052V132.095ZM100.897 132.315C100.897 131.756 101.004 131.253 101.219 130.806C101.438 130.358 101.744 130.011 102.138 129.764C102.535 129.513 102.985 129.388 103.486 129.388C104.259 129.388 104.886 129.66 105.366 130.204C105.846 130.745 106.085 131.463 106.085 132.358V132.492C106.085 133.054 105.976 133.561 105.758 134.012C105.543 134.46 105.239 134.805 104.845 135.049C104.451 135.292 104.001 135.414 103.497 135.414C102.727 135.414 102.1 135.144 101.617 134.603C101.137 134.059 100.897 133.339 100.897 132.444V132.315ZM101.542 132.492C101.542 133.187 101.721 133.758 102.079 134.206C102.44 134.65 102.913 134.872 103.497 134.872C104.077 134.872 104.546 134.65 104.904 134.206C105.265 133.758 105.446 133.169 105.446 132.438V132.315C105.446 131.871 105.364 131.465 105.199 131.096C105.035 130.727 104.804 130.442 104.506 130.242C104.209 130.038 103.869 129.936 103.486 129.936C102.913 129.936 102.446 130.161 102.084 130.612C101.722 131.06 101.542 131.647 101.542 132.374V132.492ZM107.487 135.307V129.495H109.62C110.357 129.495 110.923 129.628 111.317 129.893C111.711 130.154 111.908 130.539 111.908 131.047C111.908 131.337 111.82 131.597 111.645 131.826C111.469 132.052 111.213 132.216 110.876 132.32C111.256 132.392 111.56 132.555 111.79 132.809C112.022 133.063 112.139 133.359 112.139 133.695C112.139 134.207 111.949 134.605 111.569 134.888C111.193 135.167 110.66 135.307 109.969 135.307H107.487ZM108.126 132.632V134.77H109.99C110.474 134.77 110.846 134.676 111.107 134.49C111.369 134.304 111.5 134.035 111.5 133.685C111.5 133.362 111.369 133.106 111.107 132.917C110.846 132.727 110.474 132.632 109.99 132.632H108.126ZM108.126 132.095H109.754C110.764 132.08 111.269 131.737 111.269 131.063C111.269 130.709 111.129 130.451 110.85 130.29C110.574 130.125 110.164 130.043 109.62 130.043H108.126V132.095Z" fill="black"/>
<g filter="url(#filter1_d_111_34582)">
<path d="M192.313 238.689H190.591V234.267H186.141V238.689H184.411V228.736H186.141V232.879H190.591V228.736H192.313V238.689ZM198.623 238.689C198.55 238.548 198.486 238.318 198.432 237.999C197.903 238.55 197.256 238.826 196.49 238.826C195.747 238.826 195.141 238.614 194.672 238.19C194.202 237.767 193.968 237.243 193.968 236.618C193.968 235.83 194.259 235.226 194.843 234.807C195.431 234.383 196.269 234.171 197.358 234.171H198.377V233.686C198.377 233.303 198.27 232.997 198.056 232.77C197.841 232.537 197.516 232.421 197.078 232.421C196.7 232.421 196.39 232.517 196.148 232.708C195.907 232.895 195.786 233.134 195.786 233.426H194.125C194.125 233.02 194.259 232.642 194.528 232.291C194.797 231.936 195.162 231.658 195.622 231.457C196.087 231.257 196.604 231.156 197.174 231.156C198.04 231.156 198.73 231.375 199.245 231.812C199.76 232.245 200.024 232.856 200.038 233.645V236.98C200.038 237.646 200.132 238.177 200.318 238.573V238.689H198.623ZM196.798 237.493C197.126 237.493 197.434 237.413 197.721 237.254C198.012 237.094 198.231 236.88 198.377 236.611V235.217H197.481C196.866 235.217 196.404 235.324 196.094 235.538C195.784 235.752 195.629 236.055 195.629 236.447C195.629 236.766 195.734 237.021 195.943 237.213C196.158 237.4 196.442 237.493 196.798 237.493ZM208.05 238.689H206.389V232.633H203.504V238.689H201.843V231.293H208.05V238.689ZM214.435 231.293H216.089V238.689H214.435V233.754L211.536 238.689H209.882V231.293H211.536V236.229L214.435 231.293ZM220.895 237.5C221.309 237.5 221.653 237.379 221.927 237.138C222.2 236.896 222.346 236.598 222.364 236.242H223.93C223.911 236.702 223.768 237.133 223.499 237.534C223.23 237.931 222.866 238.245 222.405 238.478C221.945 238.71 221.448 238.826 220.915 238.826C219.881 238.826 219.06 238.491 218.454 237.821C217.848 237.151 217.545 236.226 217.545 235.046V234.875C217.545 233.749 217.846 232.849 218.447 232.175C219.049 231.496 219.869 231.156 220.908 231.156C221.788 231.156 222.503 231.414 223.055 231.929C223.611 232.439 223.902 233.111 223.93 233.945H222.364C222.346 233.521 222.2 233.173 221.927 232.899C221.658 232.626 221.314 232.489 220.895 232.489C220.357 232.489 219.942 232.685 219.65 233.077C219.359 233.465 219.211 234.055 219.206 234.848V235.114C219.206 235.916 219.35 236.516 219.637 236.912C219.928 237.304 220.348 237.5 220.895 237.5ZM229.604 238.689C229.531 238.548 229.467 238.318 229.412 237.999C228.883 238.55 228.236 238.826 227.471 238.826C226.728 238.826 226.122 238.614 225.652 238.19C225.183 237.767 224.948 237.243 224.948 236.618C224.948 235.83 225.24 235.226 225.823 234.807C226.411 234.383 227.25 234.171 228.339 234.171H229.357V233.686C229.357 233.303 229.25 232.997 229.036 232.77C228.822 232.537 228.496 232.421 228.059 232.421C227.68 232.421 227.37 232.517 227.129 232.708C226.887 232.895 226.767 233.134 226.767 233.426H225.105C225.105 233.02 225.24 232.642 225.509 232.291C225.778 231.936 226.142 231.658 226.603 231.457C227.067 231.257 227.585 231.156 228.154 231.156C229.02 231.156 229.711 231.375 230.226 231.812C230.741 232.245 231.005 232.856 231.019 233.645V236.98C231.019 237.646 231.112 238.177 231.299 238.573V238.689H229.604ZM227.778 237.493C228.106 237.493 228.414 237.413 228.701 237.254C228.993 237.094 229.212 236.88 229.357 236.611V235.217H228.462C227.847 235.217 227.384 235.324 227.074 235.538C226.764 235.752 226.609 236.055 226.609 236.447C226.609 236.766 226.714 237.021 226.924 237.213C227.138 237.4 227.423 237.493 227.778 237.493ZM238.47 232.612H236.07V238.689H234.409V232.612H232.037V231.293H238.47V232.612ZM241.368 233.645H242.995C243.601 233.645 244.13 233.749 244.581 233.959C245.032 234.169 245.374 234.463 245.606 234.841C245.843 235.219 245.962 235.659 245.962 236.16C245.962 236.921 245.693 237.532 245.155 237.992C244.618 238.452 243.902 238.685 243.009 238.689H239.707V231.293H241.368V233.645ZM241.368 234.978V237.363H242.988C243.394 237.363 243.713 237.263 243.945 237.062C244.182 236.857 244.301 236.568 244.301 236.194C244.301 235.821 244.185 235.527 243.952 235.312C243.724 235.094 243.414 234.982 243.022 234.978H241.368ZM250.467 234.923C250.467 234.198 250.61 233.547 250.897 232.968C251.185 232.384 251.588 231.938 252.107 231.628C252.627 231.313 253.224 231.156 253.898 231.156C254.896 231.156 255.705 231.478 256.325 232.12C256.95 232.763 257.287 233.615 257.337 234.677L257.344 235.066C257.344 235.796 257.202 236.447 256.92 237.021C256.642 237.596 256.241 238.04 255.717 238.354C255.197 238.669 254.596 238.826 253.912 238.826C252.868 238.826 252.032 238.48 251.403 237.787C250.779 237.09 250.467 236.162 250.467 235.005V234.923ZM252.128 235.066C252.128 235.827 252.285 236.424 252.6 236.857C252.914 237.286 253.352 237.5 253.912 237.5C254.473 237.5 254.908 237.281 255.218 236.844C255.532 236.406 255.689 235.766 255.689 234.923C255.689 234.175 255.528 233.583 255.204 233.146C254.885 232.708 254.45 232.489 253.898 232.489C253.356 232.489 252.925 232.706 252.606 233.139C252.287 233.567 252.128 234.21 252.128 235.066ZM264.364 232.612H261.965V238.689H260.304V232.612H257.932V231.293H264.364V232.612ZM271.077 233.316C271.077 233.645 270.977 233.948 270.776 234.226C270.58 234.499 270.302 234.718 269.942 234.882C270.79 235.178 271.214 235.75 271.214 236.598C271.214 237.277 270.938 237.819 270.387 238.225C269.835 238.626 269.097 238.826 268.172 238.826C267.607 238.826 267.092 238.733 266.627 238.546C266.162 238.354 265.8 238.086 265.54 237.739C265.28 237.388 265.15 236.974 265.15 236.495H266.805C266.805 236.796 266.939 237.049 267.208 237.254C267.477 237.454 267.816 237.555 268.227 237.555C268.632 237.555 268.953 237.461 269.19 237.274C269.432 237.083 269.553 236.835 269.553 236.529C269.553 236.169 269.448 235.91 269.238 235.75C269.029 235.59 268.705 235.511 268.268 235.511H267.078V234.314H268.309C269.051 234.305 269.423 234 269.423 233.398C269.423 233.098 269.316 232.863 269.102 232.694C268.887 232.526 268.593 232.441 268.22 232.441C267.855 232.441 267.548 232.533 267.297 232.715C267.046 232.893 266.921 233.118 266.921 233.392H265.267C265.267 232.74 265.54 232.207 266.087 231.792C266.634 231.373 267.329 231.163 268.172 231.163C269.088 231.163 269.801 231.35 270.312 231.724C270.822 232.097 271.077 232.628 271.077 233.316ZM274.413 233.645H276.04C276.646 233.645 277.175 233.749 277.626 233.959C278.077 234.169 278.419 234.463 278.651 234.841C278.888 235.219 279.007 235.659 279.007 236.16C279.007 236.921 278.738 237.532 278.2 237.992C277.662 238.452 276.947 238.685 276.054 238.689H272.752V231.293H274.413V233.645ZM281.898 238.689H280.237V231.293H281.898V238.689ZM274.413 234.978V237.363H276.033C276.439 237.363 276.758 237.263 276.99 237.062C277.227 236.857 277.346 236.568 277.346 236.194C277.346 235.821 277.229 235.527 276.997 235.312C276.769 235.094 276.459 234.982 276.067 234.978H274.413ZM284.018 238.689V231.293H287.019C288.03 231.293 288.8 231.471 289.329 231.826C289.858 232.177 290.122 232.683 290.122 233.344C290.122 233.686 290.015 233.993 289.801 234.267C289.591 234.535 289.279 234.743 288.864 234.889C289.347 234.989 289.73 235.192 290.013 235.497C290.295 235.802 290.437 236.162 290.437 236.577C290.437 237.265 290.181 237.789 289.671 238.149C289.165 238.509 288.436 238.689 287.483 238.689H284.018ZM285.679 235.538V237.377H287.497C288.349 237.377 288.775 237.072 288.775 236.461C288.775 235.846 288.342 235.538 287.477 235.538H285.679ZM285.679 234.349H287.046C287.989 234.349 288.461 234.071 288.461 233.515C288.461 232.931 288.014 232.631 287.121 232.612H285.679V234.349Z" fill="black"/>
<rect x="52.9619" y="212.439" width="368.5" height="42.5" stroke="url(#paint9_linear_111_34582)" stroke-width="1.5"/>
</g>
<defs>
<filter id="filter0_d_111_34582" x="0.466019" y="0.619417" width="469.068" height="308.068" filterUnits="userSpaceOnUse" color-interpolation-filters="sRGB">
<feFlood flood-opacity="0" result="BackgroundImageFix"/>
<feColorMatrix in="SourceAlpha" type="matrix" values="0 0 0 0 0 0 0 0 0 0 0 0 0 0 0 0 0 0 127 0" result="hardAlpha"/>
<feOffset dy="3.1534"/>
<feGaussianBlur stdDeviation="15.767"/>
<feColorMatrix type="matrix" values="0 0 0 0 0 0 0 0 0 0 0 0 0 0 0 0 0 0 0.12 0"/>
<feBlend mode="normal" in2="BackgroundImageFix" result="effect1_dropShadow_111_34582"/>
<feBlend mode="normal" in="SourceGraphic" in2="effect1_dropShadow_111_34582" result="shape"/>
</filter>
<filter id="filter1_d_111_34582" x="12.2119" y="171.689" width="450" height="124" filterUnits="userSpaceOnUse" color-interpolation-filters="sRGB">
<feFlood flood-opacity="0" result="BackgroundImageFix"/>
<feColorMatrix in="SourceAlpha" type="matrix" values="0 0 0 0 0 0 0 0 0 0 0 0 0 0 0 0 0 0 127 0" result="hardAlpha"/>
<feOffset/>
<feGaussianBlur stdDeviation="20"/>
<feColorMatrix type="matrix" values="0 0 0 0 0 0 0 0 0 0 0 0 0 0 0 0 0 0 0.12 0"/>
<feBlend mode="normal" in2="BackgroundImageFix" result="effect1_dropShadow_111_34582"/>
<feBlend mode="normal" in="SourceGraphic" in2="effect1_dropShadow_111_34582" result="shape"/>
</filter>
<linearGradient id="paint0_linear_111_34582" x1="88.9789" y1="49.2222" x2="98.7369" y2="107.191" gradientUnits="userSpaceOnUse">
<stop stop-color="#F64D4D"/>
<stop offset="1" stop-color="#4D5EF6"/>
</linearGradient>
<linearGradient id="paint1_linear_111_34582" x1="124.553" y1="49.2735" x2="138.458" y2="105.443" gradientUnits="userSpaceOnUse">
<stop stop-color="#F64D4D"/>
<stop offset="1" stop-color="#4D5EF6"/>
</linearGradient>
<linearGradient id="paint2_linear_111_34582" x1="193.751" y1="69.7706" x2="211.65" y2="75.7432" gradientUnits="userSpaceOnUse">
<stop stop-color="#F64D4D"/>
<stop offset="1" stop-color="#4D5EF6"/>
</linearGradient>
<linearGradient id="paint3_linear_111_34582" x1="88.9789" y1="69.2222" x2="98.7369" y2="127.191" gradientUnits="userSpaceOnUse">
<stop stop-color="#F64D4D"/>
<stop offset="1" stop-color="#4D5EF6"/>
</linearGradient>
<linearGradient id="paint4_linear_111_34582" x1="88.9789" y1="91.2222" x2="98.7369" y2="149.191" gradientUnits="userSpaceOnUse">
<stop stop-color="#F64D4D"/>
<stop offset="1" stop-color="#4D5EF6"/>
</linearGradient>
<linearGradient id="paint5_linear_111_34582" x1="88.9789" y1="112.222" x2="98.7369" y2="170.191" gradientUnits="userSpaceOnUse">
<stop stop-color="#F64D4D"/>
<stop offset="1" stop-color="#4D5EF6"/>
</linearGradient>
<linearGradient id="paint6_linear_111_34582" x1="88.9789" y1="134.222" x2="98.7369" y2="192.191" gradientUnits="userSpaceOnUse">
<stop stop-color="#F64D4D"/>
<stop offset="1" stop-color="#4D5EF6"/>
</linearGradient>
<linearGradient id="paint7_linear_111_34582" x1="24.35" y1="11.1111" x2="122.128" y2="22.7284" gradientUnits="userSpaceOnUse">
<stop stop-color="#F64D4D"/>
<stop offset="1" stop-color="#4D5EF6"/>
</linearGradient>
<linearGradient id="paint8_linear_111_34582" x1="88.1952" y1="66.045" x2="105.537" y2="68.127" gradientUnits="userSpaceOnUse">
<stop stop-color="#F64D4D"/>
<stop offset="1" stop-color="#4D5EF6"/>
</linearGradient>
<linearGradient id="paint9_linear_111_34582" x1="-153.601" y1="181.134" x2="174.264" y2="508.709" gradientUnits="userSpaceOnUse">
<stop stop-color="#F64D4D"/>
<stop offset="1" stop-color="#4D5EF6"/>
</linearGradient>
<clipPath id="clip0_111_34582">
<rect width="14" height="14" fill="white" transform="translate(91.9 71)"/>
</clipPath>
</defs>
</svg>
