<svg width="82" height="27" viewBox="0 0 82 27" fill="none" xmlns="http://www.w3.org/2000/svg">
<path d="M16.559 21H6.31091V19.5713L11.725 13.5557C12.5271 12.6462 13.0785 11.9085 13.3793 11.3428C13.6872 10.7699 13.8412 10.179 13.8412 9.57031C13.8412 8.75391 13.5941 8.08431 13.1 7.56152C12.6058 7.03874 11.947 6.77734 11.1234 6.77734C10.1351 6.77734 9.36528 7.06022 8.81384 7.62598C8.26957 8.18457 7.99744 8.96517 7.99744 9.96777H6.01013C6.01013 8.52832 6.47205 7.36458 7.39587 6.47656C8.32686 5.58854 9.56938 5.14453 11.1234 5.14453C12.5772 5.14453 13.7266 5.52767 14.5717 6.29395C15.4167 7.05306 15.8392 8.06641 15.8392 9.33398C15.8392 10.8737 14.8581 12.707 12.8959 14.834L8.70642 19.3779H16.559V21ZM32.5111 15.7471H34.681V17.3691H32.5111V21H30.5131V17.3691H23.391V16.1982L30.3949 5.35938H32.5111V15.7471ZM25.6469 15.7471H30.5131V8.07715L30.2767 8.50684L25.6469 15.7471ZM44.0912 14.125C43.6758 14.6191 43.1781 15.0166 42.598 15.3174C42.0251 15.6182 41.3949 15.7686 40.7074 15.7686C39.8051 15.7686 39.0173 15.5465 38.3441 15.1025C37.6781 14.6585 37.1625 14.0355 36.7972 13.2334C36.432 12.4242 36.2494 11.5326 36.2494 10.5586C36.2494 9.51302 36.4463 8.57129 36.8402 7.7334C37.2413 6.89551 37.807 6.25456 38.5375 5.81055C39.2679 5.36654 40.1202 5.14453 41.0941 5.14453C42.641 5.14453 43.8584 5.72461 44.7465 6.88477C45.6416 8.03776 46.0892 9.61328 46.0892 11.6113V12.1914C46.0892 15.235 45.4877 17.4587 44.2845 18.8623C43.0814 20.2588 41.266 20.9749 38.8383 21.0107H38.4515V19.335H38.8705C40.5105 19.3063 41.7709 18.8802 42.6517 18.0566C43.5326 17.2259 44.0124 15.9154 44.0912 14.125ZM41.0297 14.125C41.6957 14.125 42.308 13.9209 42.8666 13.5127C43.4323 13.1045 43.8441 12.5996 44.1019 11.998V11.2031C44.1019 9.89974 43.8191 8.83984 43.2533 8.02344C42.6875 7.20703 41.9714 6.79883 41.1049 6.79883C40.2312 6.79883 39.5293 7.13542 38.9994 7.80859C38.4694 8.47461 38.2045 9.35547 38.2045 10.4512C38.2045 11.5182 38.4587 12.3991 38.9672 13.0938C39.4828 13.7812 40.1703 14.125 41.0297 14.125ZM56.4447 14.125C56.0293 14.6191 55.5316 15.0166 54.9515 15.3174C54.3786 15.6182 53.7484 15.7686 53.0609 15.7686C52.1586 15.7686 51.3708 15.5465 50.6976 15.1025C50.0316 14.6585 49.516 14.0355 49.1508 13.2334C48.7855 12.4242 48.6029 11.5326 48.6029 10.5586C48.6029 9.51302 48.7998 8.57129 49.1937 7.7334C49.5948 6.89551 50.1605 6.25456 50.891 5.81055C51.6215 5.36654 52.4737 5.14453 53.4476 5.14453C54.9945 5.14453 56.212 5.72461 57.1 6.88477C57.9952 8.03776 58.4427 9.61328 58.4427 11.6113V12.1914C58.4427 15.235 57.8412 17.4587 56.6381 18.8623C55.4349 20.2588 53.6195 20.9749 51.1918 21.0107H50.8051V19.335H51.224C52.864 19.3063 54.1244 18.8802 55.0052 18.0566C55.8861 17.2259 56.3659 15.9154 56.4447 14.125ZM53.3832 14.125C54.0492 14.125 54.6615 13.9209 55.2201 13.5127C55.7858 13.1045 56.1976 12.5996 56.4554 11.998V11.2031C56.4554 9.89974 56.1726 8.83984 55.6068 8.02344C55.0411 7.20703 54.3249 6.79883 53.4584 6.79883C52.5847 6.79883 51.8829 7.13542 51.3529 7.80859C50.823 8.47461 50.558 9.35547 50.558 10.4512C50.558 11.5182 50.8122 12.3991 51.3207 13.0938C51.8363 13.7812 52.5238 14.125 53.3832 14.125ZM73.5463 18.0459H69.9476V21H67.8959V18.0459H65.6722V16.3486H67.8959V14.877H65.6722V13.1904H67.8959V5.35938H73.6644C75.3402 5.35938 76.6687 5.78548 77.6498 6.6377C78.6309 7.48991 79.1215 8.6429 79.1215 10.0967C79.1215 11.6221 78.6488 12.8001 77.7035 13.6309C76.7653 14.4544 75.4297 14.8698 73.6967 14.877H69.9476V16.3486H73.5463V18.0459ZM69.9476 13.1904H73.6644C74.7745 13.1904 75.6195 12.929 76.1996 12.4062C76.7797 11.8835 77.0697 11.1208 77.0697 10.1182C77.0697 9.20866 76.7689 8.47461 76.1674 7.91602C75.5658 7.35026 74.753 7.0638 73.7289 7.05664H69.9476V13.1904Z" fill="#464646" fill-opacity="0.55"/>
<line y1="-0.911111" x2="80.2111" y2="-0.911111" transform="matrix(0.993875 -0.110512 0.103077 0.994673 1.36667 17.9326)" stroke="#FF4343" stroke-width="1.82222"/>
</svg>
