<svg width="54" height="43" viewBox="0 0 54 43" fill="none" xmlns="http://www.w3.org/2000/svg">
<g id="Group 39">
<g id="Group 38">
<rect id="Rectangle 15" x="23.8843" y="12.7588" width="9.85138" height="29.5542" fill="#4656E3"/>
</g>
<path id="Vector 6" d="M53.4384 22.6107C41.6168 22.6107 33.8013 35.7787 33.7357 42.3135H23.8843C23.8843 32.4621 33.7357 12.7593 53.4384 12.7593V22.6107Z" fill="#4D5EF6"/>
<path id="Vector 7" d="M12.1608 12.7594L5.17331 12.7594C5.17325 24.2163 12.1609 32.1341 18.2366 32.1341C23.8839 32.1341 30.6917 24.01 30.6917 12.7594L23.884 12.7594C23.884 16.9885 20.6667 24.5394 18.2365 24.5394C15.8063 24.5394 12.1608 17.0735 12.1608 12.7594Z" fill="#F64D4D"/>
<path id="Vector 3" d="M53.4384 32.4616C41.6168 32.4616 33.8013 19.2935 33.7357 12.7588H23.8843C23.8843 22.6102 33.7357 42.313 53.4384 42.313V32.4616Z" fill="#FE5F5F"/>
<rect id="Rectangle 16" x="2.30997" y="12.7588" width="9.85138" height="29.5542" fill="#E34646"/>
<rect id="Rectangle 16_2" x="23.8843" y="0.34668" width="9.85138" height="9.85138" fill="#FE5F5F"/>
</g>
</svg>
