<svg width="27" height="98" viewBox="0 0 27 98" fill="none" xmlns="http://www.w3.org/2000/svg">
<path d="M26.4172 0L26.4172 97.5547L13.4172 87.5L0.417236 97.5547L0.417236 0L26.4172 0Z" fill="#AEC1E4"/>
<path d="M13.2483 66.3477C13.9026 66.3477 14.4771 66.4616 14.9719 66.6895C15.4667 66.9141 15.8476 67.2363 16.1145 67.6562C16.3814 68.0762 16.5149 68.5612 16.5149 69.1113C16.5149 69.9414 16.2187 70.612 15.6262 71.123C15.0305 71.6341 14.2281 71.8896 13.219 71.8896H12.4866C11.8388 71.8896 11.2659 71.7757 10.7678 71.5479C10.2665 71.3167 9.88241 70.9912 9.61548 70.5713C9.3453 70.1514 9.21021 69.668 9.21021 69.1211C9.21021 68.5742 9.34204 68.0924 9.60571 67.6758C9.86938 67.2559 10.2421 66.932 10.7239 66.7041C11.2056 66.4762 11.7639 66.3574 12.3987 66.3477H13.2483ZM12.4768 66.9482C11.6207 66.9482 10.9501 67.1419 10.4651 67.5293C9.98006 67.9167 9.73755 68.4473 9.73755 69.1211C9.73755 69.7819 9.98169 70.3092 10.47 70.7031C10.955 71.0938 11.6337 71.2891 12.5061 71.2891H13.2483C14.0914 71.2891 14.7603 71.0938 15.2551 70.7031C15.7467 70.3125 15.9924 69.7819 15.9924 69.1113C15.9924 68.431 15.7499 67.9004 15.2649 67.5195C14.7766 67.1387 14.0979 66.9482 13.2288 66.9482H12.4768ZM16.4172 64.5508H11.6125V65.4248H11.134V64.5508H10.4944C9.95402 64.5508 9.53898 64.4141 9.24927 64.1406C8.95955 63.8639 8.8147 63.4798 8.8147 62.9883C8.8147 62.7669 8.84237 62.5602 8.89771 62.3682L9.38599 62.4121C9.34692 62.5749 9.32739 62.7523 9.32739 62.9443C9.32739 63.2666 9.4283 63.5173 9.63013 63.6963C9.82869 63.8753 10.1119 63.9648 10.4797 63.9648H11.134V61.7139H10.592C10.0289 61.7139 9.59269 61.5609 9.28345 61.2549C8.97095 60.9489 8.8147 60.5176 8.8147 59.9609C8.8147 59.5247 8.91073 59.0755 9.10278 58.6133L9.60571 58.7109C9.43319 59.1178 9.34692 59.5231 9.34692 59.9268C9.34692 60.7308 9.76847 61.1328 10.6116 61.1328H11.134V59.8926H11.6125V61.1328H16.4172V61.7139H11.6125V63.9648H16.4172V64.5508ZM16.4172 58.2959V58.8818H11.134V58.2959H16.4172ZM16.0217 54.7363C16.0217 54.3294 15.9078 53.9893 15.6799 53.7158C15.4488 53.4391 15.151 53.2894 14.7864 53.2666V52.7051C15.1086 52.7214 15.4032 52.8223 15.6702 53.0078C15.9338 53.1934 16.1405 53.4408 16.2903 53.75C16.44 54.056 16.5149 54.3848 16.5149 54.7363C16.5149 55.4297 16.274 55.9798 15.7922 56.3867C15.3105 56.7904 14.6627 56.9922 13.8489 56.9922H13.6731C13.1523 56.9922 12.6917 56.901 12.2913 56.7188C11.8909 56.5365 11.5816 56.276 11.3635 55.9375C11.1454 55.5957 11.0364 55.1969 11.0364 54.7412C11.0364 54.1618 11.2089 53.6849 11.554 53.3105C11.899 52.9329 12.3531 52.7311 12.9163 52.7051V53.2666C12.5028 53.2926 12.1692 53.4424 11.9153 53.7158C11.6614 53.986 11.5344 54.3278 11.5344 54.7412C11.5344 55.2686 11.7249 55.6787 12.1057 55.9717C12.4866 56.2614 13.0204 56.4062 13.7073 56.4062H13.8782C14.552 56.4062 15.0777 56.2614 15.4553 55.9717C15.8329 55.6787 16.0217 55.2669 16.0217 54.7363ZM16.4172 50.8789V51.4648H11.134V50.8789H16.4172ZM9.60571 51.5674C9.49504 51.5674 9.40226 51.5316 9.32739 51.46C9.24927 51.3883 9.21021 51.2907 9.21021 51.167C9.21021 51.0433 9.24927 50.9456 9.32739 50.874C9.40226 50.7992 9.49504 50.7617 9.60571 50.7617C9.71639 50.7617 9.80916 50.7992 9.88403 50.874C9.9589 50.9456 9.99634 51.0433 9.99634 51.167C9.99634 51.2907 9.9589 51.3883 9.88403 51.46C9.80916 51.5316 9.71639 51.5674 9.60571 51.5674ZM16.4172 45.9521C16.2512 46.0107 16.0055 46.0482 15.6799 46.0645C15.9469 46.2695 16.1536 46.5316 16.3 46.8506C16.4433 47.1663 16.5149 47.5016 16.5149 47.8564C16.5149 48.3643 16.3733 48.776 16.0901 49.0918C15.8069 49.4043 15.4488 49.5605 15.0159 49.5605C14.5015 49.5605 14.0946 49.3473 13.7952 48.9209C13.4957 48.4912 13.3459 47.8939 13.3459 47.1289V46.0693H12.7454C12.3678 46.0693 12.0715 46.1865 11.8567 46.4209C11.6386 46.652 11.5295 46.9906 11.5295 47.4365C11.5295 47.8434 11.6337 48.1803 11.842 48.4473C12.0504 48.7142 12.301 48.8477 12.594 48.8477L12.5891 49.4336C12.1692 49.4336 11.8062 49.2383 11.5002 48.8477C11.191 48.457 11.0364 47.9769 11.0364 47.4072C11.0364 46.818 11.1845 46.3542 11.4807 46.0156C11.7737 45.6738 12.1838 45.498 12.7112 45.4883H15.2112C15.7222 45.4883 16.1047 45.4346 16.3586 45.3271H16.4172V45.9521ZM15.9973 47.7881C15.9973 47.3975 15.9029 47.0492 15.7141 46.7432C15.5253 46.4339 15.273 46.2093 14.9573 46.0693H13.7952V47.1143C13.8017 47.6969 13.9091 48.1527 14.1174 48.4814C14.3225 48.8102 14.6057 48.9746 14.967 48.9746C15.2633 48.9746 15.509 48.8656 15.7043 48.6475C15.8997 48.4261 15.9973 48.1396 15.9973 47.7881ZM16.4172 43.2715V43.8574H8.91724V43.2715H16.4172ZM13.8293 35C14.6529 35 15.3072 35.1823 15.7922 35.5469C16.274 35.9115 16.5149 36.3997 16.5149 37.0117C16.5149 37.7344 16.261 38.2878 15.7532 38.6719H18.4485V39.2529H11.134V38.7109L11.8811 38.6816C11.318 38.3008 11.0364 37.749 11.0364 37.0264C11.0364 36.3949 11.2756 35.9001 11.7542 35.542C12.2327 35.1807 12.8967 35 13.7463 35H13.8293ZM13.7268 35.5859C13.053 35.5859 12.5208 35.7243 12.1301 36.001C11.7395 36.2777 11.5442 36.6634 11.5442 37.1582C11.5442 37.5163 11.6305 37.8239 11.803 38.0811C11.9755 38.3382 12.2262 38.5352 12.5549 38.6719H15.0891C15.3918 38.5319 15.623 38.3317 15.7825 38.0713C15.942 37.8109 16.0217 37.5033 16.0217 37.1484C16.0217 36.6569 15.8264 36.2744 15.4358 36.001C15.0419 35.7243 14.4722 35.5859 13.7268 35.5859ZM16.4172 30.3662C16.2512 30.4248 16.0055 30.4622 15.6799 30.4785C15.9469 30.6836 16.1536 30.9456 16.3 31.2646C16.4433 31.5804 16.5149 31.9157 16.5149 32.2705C16.5149 32.7783 16.3733 33.1901 16.0901 33.5059C15.8069 33.8184 15.4488 33.9746 15.0159 33.9746C14.5015 33.9746 14.0946 33.7614 13.7952 33.335C13.4957 32.9053 13.3459 32.3079 13.3459 31.543V30.4834H12.7454C12.3678 30.4834 12.0715 30.6006 11.8567 30.835C11.6386 31.0661 11.5295 31.4046 11.5295 31.8506C11.5295 32.2575 11.6337 32.5944 11.842 32.8613C12.0504 33.1283 12.301 33.2617 12.594 33.2617L12.5891 33.8477C12.1692 33.8477 11.8062 33.6523 11.5002 33.2617C11.191 32.8711 11.0364 32.391 11.0364 31.8213C11.0364 31.2321 11.1845 30.7682 11.4807 30.4297C11.7737 30.0879 12.1838 29.9121 12.7112 29.9023H15.2112C15.7222 29.9023 16.1047 29.8486 16.3586 29.7412H16.4172V30.3662ZM15.9973 32.2021C15.9973 31.8115 15.9029 31.4632 15.7141 31.1572C15.5253 30.848 15.273 30.6234 14.9573 30.4834H13.7952V31.5283C13.8017 32.111 13.9091 32.5667 14.1174 32.8955C14.3225 33.2243 14.6057 33.3887 14.967 33.3887C15.2633 33.3887 15.509 33.2796 15.7043 33.0615C15.8997 32.8402 15.9973 32.5537 15.9973 32.2021ZM11.6321 25.8984C11.6093 26.0221 11.5979 26.154 11.5979 26.2939C11.5979 26.6585 11.7004 26.9678 11.9055 27.2217C12.1073 27.4723 12.4019 27.6514 12.7893 27.7588H16.4172V28.3398H11.134V27.7686L11.9739 27.7588C11.3489 27.4495 11.0364 26.9531 11.0364 26.2695C11.0364 26.1068 11.0575 25.9782 11.0999 25.8838L11.6321 25.8984ZM9.78149 23.8184H11.134V22.7246H11.6125V23.8184H15.1331C15.426 23.8184 15.6441 23.7663 15.7874 23.6621C15.9306 23.5547 16.0022 23.3773 16.0022 23.1299C16.0022 23.0322 15.9859 22.8743 15.9534 22.6562L16.4319 22.6318C16.4872 22.7848 16.5149 22.9932 16.5149 23.2568C16.5149 23.6572 16.3993 23.9486 16.1682 24.1309C15.9338 24.3132 15.5904 24.4043 15.1379 24.4043H11.6125V25.376H11.134V24.4043H9.78149V23.8184ZM11.134 20.957L12.0374 20.9375C11.7118 20.7389 11.4644 20.4915 11.2952 20.1953C11.1226 19.8991 11.0364 19.5719 11.0364 19.2139C11.0364 18.6475 11.1959 18.2259 11.5149 17.9492C11.8339 17.6725 12.3124 17.5326 12.9504 17.5293H16.4172V18.1104H12.9456C12.4736 18.1136 12.122 18.2145 11.8909 18.4131C11.6597 18.6084 11.5442 18.9225 11.5442 19.3555C11.5442 19.7168 11.6581 20.0374 11.886 20.3174C12.1106 20.5941 12.415 20.7992 12.7991 20.9326H16.4172V21.5137H11.134V20.957ZM16.5149 13.9697C16.5149 14.4189 16.4042 14.8258 16.1829 15.1904C15.9615 15.5518 15.6539 15.8333 15.26 16.0352C14.8629 16.237 14.4185 16.3379 13.927 16.3379H13.717C13.2092 16.3379 12.7519 16.2402 12.345 16.0449C11.9381 15.8464 11.6191 15.5713 11.3879 15.2197C11.1536 14.8682 11.0364 14.4873 11.0364 14.0771C11.0364 13.4359 11.2561 12.9281 11.6956 12.5537C12.1318 12.1761 12.7291 11.9873 13.4875 11.9873H13.8147V15.7568H13.927C14.526 15.7568 15.0256 15.5859 15.426 15.2441C15.8232 14.8991 16.0217 14.4661 16.0217 13.9453C16.0217 13.6328 15.9648 13.3577 15.8508 13.1201C15.7369 12.8792 15.5546 12.6611 15.304 12.4658L15.5823 12.0996C16.204 12.5293 16.5149 13.1527 16.5149 13.9697ZM11.5344 14.0771C11.5344 14.5166 11.6956 14.8877 12.0178 15.1904C12.3401 15.4899 12.773 15.6722 13.3167 15.7373V12.5684H13.2532C12.7454 12.5846 12.3319 12.7295 12.0129 13.0029C11.6939 13.2764 11.5344 13.6344 11.5344 14.0771ZM11.6321 8.4082C11.6093 8.5319 11.5979 8.66374 11.5979 8.80371C11.5979 9.16829 11.7004 9.47754 11.9055 9.73145C12.1073 9.9821 12.4019 10.1611 12.7893 10.2686H16.4172V10.8496H11.134V10.2783L11.9739 10.2686C11.3489 9.95931 11.0364 9.46289 11.0364 8.7793C11.0364 8.61654 11.0575 8.48796 11.0999 8.39355L11.6321 8.4082Z" fill="black"/>
</svg>
