<svg width="30" height="10" viewBox="0 0 30 10" fill="none" xmlns="http://www.w3.org/2000/svg">
<rect x="0.859375" y="0.342773" width="28.7791" height="8.91653" rx="4.45826" stroke="url(#paint0_linear_111_33182)" stroke-width="0.5"/>
<path d="M12.4099 8.96973H11.4646V4.40332L10.0701 4.87988V4.0791L12.2888 3.2627H12.4099V8.96973ZM18.0935 6.5752C18.0935 7.3929 17.9399 8.01009 17.6326 8.42676C17.3279 8.84082 16.863 9.04785 16.238 9.04785C15.6235 9.04785 15.1599 8.84603 14.8474 8.44238C14.5375 8.03613 14.3787 7.43587 14.3708 6.6416V5.65723C14.3708 4.83952 14.5232 4.22624 14.8279 3.81738C15.1352 3.40853 15.6026 3.2041 16.2302 3.2041C16.8526 3.2041 17.3162 3.40332 17.6208 3.80176C17.9281 4.2002 18.0857 4.79655 18.0935 5.59082V6.5752ZM17.1443 5.5127C17.1443 4.97884 17.0714 4.58822 16.9255 4.34082C16.7797 4.09082 16.5479 3.96582 16.2302 3.96582C15.9203 3.96582 15.6925 4.08431 15.5466 4.32129C15.4008 4.55566 15.324 4.92285 15.3162 5.42285V6.71191C15.3162 7.24316 15.3904 7.639 15.5388 7.89941C15.6873 8.15983 15.9203 8.29004 16.238 8.29004C16.5427 8.29004 16.768 8.17025 16.9138 7.93066C17.0597 7.68848 17.1365 7.31087 17.1443 6.79785V5.5127Z" fill="black"/>
<defs>
<linearGradient id="paint0_linear_111_33182" x1="-15.6771" y1="-6.44649" x2="29.9408" y2="10.4062" gradientUnits="userSpaceOnUse">
<stop stop-color="#F64D4D"/>
<stop offset="1" stop-color="#4D5EF6"/>
</linearGradient>
</defs>
</svg>
