<svg width="39" height="13" viewBox="0 0 39 13" fill="none" xmlns="http://www.w3.org/2000/svg">
<path d="M8.49097 9.75H3.83276V9.10059L6.2937 6.36621C6.65828 5.9528 6.90894 5.61751 7.04565 5.36035C7.18563 5.09993 7.25562 4.83138 7.25562 4.55469C7.25562 4.18359 7.14331 3.87923 6.9187 3.6416C6.69409 3.40397 6.39461 3.28516 6.02026 3.28516C5.57104 3.28516 5.22111 3.41374 4.97046 3.6709C4.72306 3.9248 4.59937 4.27962 4.59937 4.73535H3.69604C3.69604 4.08105 3.90601 3.55208 4.32593 3.14844C4.7491 2.74479 5.31388 2.54297 6.02026 2.54297C6.68107 2.54297 7.20353 2.71712 7.58765 3.06543C7.97176 3.41048 8.16382 3.87109 8.16382 4.44727C8.16382 5.14714 7.71785 5.98047 6.82593 6.94727L4.92163 9.0127H8.49097V9.75ZM15.7419 7.3623H16.7283V8.09961H15.7419V9.75H14.8337V8.09961H11.5964V7.56738L14.78 2.64062H15.7419V7.3623ZM12.6218 7.3623H14.8337V3.87598L14.7263 4.07129L12.6218 7.3623ZM21.0056 6.625C20.8168 6.84961 20.5906 7.03027 20.3269 7.16699C20.0665 7.30371 19.78 7.37207 19.4675 7.37207C19.0574 7.37207 18.6993 7.27116 18.3933 7.06934C18.0906 6.86751 17.8562 6.58431 17.6902 6.21973C17.5242 5.85189 17.4412 5.44661 17.4412 5.00391C17.4412 4.52865 17.5307 4.10059 17.7097 3.71973C17.892 3.33887 18.1492 3.04753 18.4812 2.8457C18.8132 2.64388 19.2006 2.54297 19.6433 2.54297C20.3464 2.54297 20.8998 2.80664 21.3035 3.33398C21.7104 3.85807 21.9138 4.57422 21.9138 5.48242V5.74609C21.9138 7.12956 21.6404 8.1403 21.0935 8.77832C20.5466 9.41309 19.7214 9.73861 18.6179 9.75488H18.4421V8.99316H18.6326C19.378 8.98014 19.9509 8.78646 20.3513 8.41211C20.7517 8.03451 20.9698 7.4388 21.0056 6.625ZM19.614 6.625C19.9167 6.625 20.1951 6.53223 20.449 6.34668C20.7061 6.16113 20.8933 5.93164 21.0105 5.6582V5.29688C21.0105 4.70443 20.8819 4.22266 20.6248 3.85156C20.3676 3.48047 20.0421 3.29492 19.6482 3.29492C19.2511 3.29492 18.932 3.44792 18.6912 3.75391C18.4503 4.05664 18.3298 4.45703 18.3298 4.95508C18.3298 5.4401 18.4454 5.84049 18.6765 6.15625C18.9109 6.46875 19.2234 6.625 19.614 6.625ZM26.6208 6.625C26.432 6.84961 26.2058 7.03027 25.9421 7.16699C25.6817 7.30371 25.3953 7.37207 25.0828 7.37207C24.6726 7.37207 24.3145 7.27116 24.0085 7.06934C23.7058 6.86751 23.4714 6.58431 23.3054 6.21973C23.1394 5.85189 23.0564 5.44661 23.0564 5.00391C23.0564 4.52865 23.1459 4.10059 23.325 3.71973C23.5072 3.33887 23.7644 3.04753 24.0964 2.8457C24.4285 2.64388 24.8158 2.54297 25.2585 2.54297C25.9617 2.54297 26.5151 2.80664 26.9187 3.33398C27.3256 3.85807 27.5291 4.57422 27.5291 5.48242V5.74609C27.5291 7.12956 27.2556 8.1403 26.7087 8.77832C26.1619 9.41309 25.3367 9.73861 24.2332 9.75488H24.0574V8.99316H24.2478C24.9932 8.98014 25.5662 8.78646 25.9666 8.41211C26.3669 8.03451 26.585 7.4388 26.6208 6.625ZM25.2292 6.625C25.532 6.625 25.8103 6.53223 26.0642 6.34668C26.3214 6.16113 26.5085 5.93164 26.6257 5.6582V5.29688C26.6257 4.70443 26.4972 4.22266 26.24 3.85156C25.9828 3.48047 25.6573 3.29492 25.2634 3.29492C24.8663 3.29492 24.5473 3.44792 24.3064 3.75391C24.0655 4.05664 23.9451 4.45703 23.9451 4.95508C23.9451 5.4401 24.0606 5.84049 24.2917 6.15625C24.5261 6.46875 24.8386 6.625 25.2292 6.625ZM34.3943 8.40723H32.7585V9.75H31.8259V8.40723H30.8152V7.63574H31.8259V6.9668H30.8152V6.2002H31.8259V2.64062H34.448C35.2097 2.64062 35.8136 2.83431 36.2595 3.22168C36.7055 3.60905 36.9285 4.13314 36.9285 4.79395C36.9285 5.4873 36.7136 6.02279 36.2839 6.40039C35.8575 6.77474 35.2504 6.96354 34.4626 6.9668H32.7585V7.63574H34.3943V8.40723ZM32.7585 6.2002H34.448C34.9526 6.2002 35.3367 6.08138 35.6003 5.84375C35.864 5.60612 35.9958 5.25944 35.9958 4.80371C35.9958 4.3903 35.8591 4.05664 35.5857 3.80273C35.3123 3.54557 34.9428 3.41536 34.4773 3.41211H32.7585V6.2002Z" fill="#464646" fill-opacity="0.55"/>
<line y1="-0.5" x2="36.8923" y2="-0.5" transform="matrix(0.99593 -0.0901281 0.0849491 0.996385 1.30078 8.25)" stroke="#FF4343"/>
</svg>
