<svg width="120" height="17" viewBox="0 0 120 17" fill="none" xmlns="http://www.w3.org/2000/svg">
<g clip-path="url(#clip0_111_33913)">
<path d="M7.75888 2.75098L9.47811 6.49997L13.436 7.04284L10.5407 9.90272L11.2675 13.9872L7.75888 12.0057L4.25024 13.9872L4.9771 9.90272L2.08179 7.04284L6.03965 6.49997L7.75888 2.75098Z" fill="url(#paint0_linear_111_33913)"/>
<path d="M15.1665 6.85543C15.4419 6.57349 15.2829 6.09822 14.8933 6.03878L10.2604 5.33196L8.19681 0.940271C8.02254 0.569388 7.495 0.569389 7.32072 0.940272L5.25713 5.33196L0.62416 6.03879C0.234574 6.09823 0.0755471 6.57348 0.350901 6.85542L3.71793 10.303L2.92555 15.1579C2.86049 15.5565 3.28359 15.8548 3.6372 15.6595L7.75877 13.3834L11.8803 15.6595C12.2339 15.8547 12.657 15.5565 12.5919 15.1578L11.7991 10.303L15.1665 6.85543ZM7.75877 12.2138L4.01336 14.3136L4.72825 10.0766L1.50366 6.78494L5.86513 6.21775L7.75877 2.18197L9.63527 6.21778L13.9821 6.83437L10.7893 10.0922L11.4568 14.3292L7.75877 12.2138Z" fill="black"/>
</g>
<g clip-path="url(#clip1_111_33913)">
<path d="M33.7588 2.75098L35.478 6.49997L39.4358 7.04284L36.5405 9.90272L37.2674 13.9872L33.7588 12.0057L30.2501 13.9872L30.977 9.90272L28.0817 7.04284L32.0395 6.49997L33.7588 2.75098Z" fill="url(#paint1_linear_111_33913)"/>
<path d="M41.1664 6.85543C41.4418 6.57349 41.2828 6.09822 40.8932 6.03878L36.2603 5.33196L34.1967 0.940271C34.0224 0.569388 33.4949 0.569389 33.3206 0.940272L31.257 5.33196L26.624 6.03879C26.2345 6.09823 26.0754 6.57348 26.3508 6.85542L29.7178 10.303L28.9254 15.1579C28.8604 15.5565 29.2835 15.8548 29.6371 15.6595L33.7586 13.3834L37.8801 15.6595C38.2338 15.8547 38.6569 15.5565 38.5918 15.1578L37.799 10.303L41.1664 6.85543ZM33.7586 12.2138L30.0132 14.3136L30.7281 10.0766L27.5035 6.78494L31.865 6.21775L33.7586 2.18197L35.6351 6.21778L39.982 6.83437L36.7891 10.0922L37.4567 14.3292L33.7586 12.2138Z" fill="black"/>
</g>
<g clip-path="url(#clip2_111_33913)">
<path d="M59.7588 2.75098L61.478 6.49997L65.4358 7.04284L62.5405 9.90272L63.2674 13.9872L59.7588 12.0057L56.2501 13.9872L56.977 9.90272L54.0817 7.04284L58.0395 6.49997L59.7588 2.75098Z" fill="url(#paint2_linear_111_33913)"/>
<path d="M67.1664 6.85543C67.4418 6.57349 67.2828 6.09822 66.8932 6.03878L62.2603 5.33196L60.1967 0.940271C60.0224 0.569388 59.4949 0.569389 59.3206 0.940272L57.257 5.33196L52.624 6.03879C52.2345 6.09823 52.0754 6.57348 52.3508 6.85542L55.7178 10.303L54.9254 15.1579C54.8604 15.5565 55.2835 15.8548 55.6371 15.6595L59.7586 13.3834L63.8801 15.6595C64.2338 15.8547 64.6569 15.5565 64.5918 15.1578L63.799 10.303L67.1664 6.85543ZM59.7586 12.2138L56.0132 14.3136L56.7281 10.0766L53.5035 6.78494L57.865 6.21775L59.7586 2.18197L61.6351 6.21778L65.982 6.83437L62.7891 10.0922L63.4567 14.3292L59.7586 12.2138Z" fill="black"/>
</g>
<g clip-path="url(#clip3_111_33913)">
<path d="M85.7588 2.75098L87.478 6.49997L91.4358 7.04284L88.5405 9.90272L89.2674 13.9872L85.7588 12.0057L82.2501 13.9872L82.977 9.90272L80.0817 7.04284L84.0395 6.49997L85.7588 2.75098Z" fill="url(#paint3_linear_111_33913)"/>
<path d="M93.1664 6.85543C93.4418 6.57349 93.2828 6.09822 92.8932 6.03878L88.2603 5.33196L86.1967 0.940271C86.0224 0.569388 85.4949 0.569389 85.3206 0.940272L83.257 5.33196L78.624 6.03879C78.2345 6.09823 78.0754 6.57348 78.3508 6.85542L81.7178 10.303L80.9254 15.1579C80.8604 15.5565 81.2835 15.8548 81.6371 15.6595L85.7586 13.3834L89.8801 15.6595C90.2338 15.8547 90.6569 15.5565 90.5918 15.1578L89.799 10.303L93.1664 6.85543ZM85.7586 12.2138L82.0132 14.3136L82.7281 10.0766L79.5035 6.78494L83.865 6.21775L85.7586 2.18197L87.6351 6.21778L91.982 6.83437L88.7891 10.0922L89.4567 14.3292L85.7586 12.2138Z" fill="black"/>
</g>
<g clip-path="url(#clip4_111_33913)">
<path d="M111.759 2.75098L113.478 6.49997L117.436 7.04284L114.541 9.90272L115.267 13.9872L111.759 12.0057L108.25 13.9872L108.977 9.90272L106.082 7.04284L110.04 6.49997L111.759 2.75098Z" fill="url(#paint4_linear_111_33913)"/>
<path d="M119.166 6.85543C119.442 6.57349 119.283 6.09822 118.893 6.03878L114.26 5.33196L112.197 0.940271C112.022 0.569388 111.495 0.569389 111.321 0.940272L109.257 5.33196L104.624 6.03879C104.234 6.09823 104.075 6.57348 104.351 6.85542L107.718 10.303L106.925 15.1579C106.86 15.5565 107.283 15.8548 107.637 15.6595L111.759 13.3834L115.88 15.6595C116.234 15.8547 116.657 15.5565 116.592 15.1578L115.799 10.303L119.166 6.85543ZM111.759 12.2138L108.013 14.3136L108.728 10.0766L105.504 6.78494L109.865 6.21775L111.759 2.18197L113.635 6.21778L117.982 6.83437L114.789 10.0922L115.457 14.3292L111.759 12.2138Z" fill="black"/>
</g>
<defs>
<linearGradient id="paint0_linear_111_33913" x1="-4.23398" y1="-5.05198" x2="15.5849" y2="-2.6725" gradientUnits="userSpaceOnUse">
<stop stop-color="#F64D4D"/>
<stop offset="1" stop-color="#4D5EF6"/>
</linearGradient>
<linearGradient id="paint1_linear_111_33913" x1="21.7659" y1="-5.05198" x2="41.5848" y2="-2.6725" gradientUnits="userSpaceOnUse">
<stop stop-color="#F64D4D"/>
<stop offset="1" stop-color="#4D5EF6"/>
</linearGradient>
<linearGradient id="paint2_linear_111_33913" x1="47.7659" y1="-5.05198" x2="67.5848" y2="-2.6725" gradientUnits="userSpaceOnUse">
<stop stop-color="#F64D4D"/>
<stop offset="1" stop-color="#4D5EF6"/>
</linearGradient>
<linearGradient id="paint3_linear_111_33913" x1="73.7659" y1="-5.05198" x2="93.5848" y2="-2.6725" gradientUnits="userSpaceOnUse">
<stop stop-color="#F64D4D"/>
<stop offset="1" stop-color="#4D5EF6"/>
</linearGradient>
<linearGradient id="paint4_linear_111_33913" x1="99.7659" y1="-5.05198" x2="119.585" y2="-2.6725" gradientUnits="userSpaceOnUse">
<stop stop-color="#F64D4D"/>
<stop offset="1" stop-color="#4D5EF6"/>
</linearGradient>
<clipPath id="clip0_111_33913">
<rect width="16" height="16" fill="white" transform="translate(0 0.611328)"/>
</clipPath>
<clipPath id="clip1_111_33913">
<rect width="16" height="16" fill="white" transform="translate(26 0.611328)"/>
</clipPath>
<clipPath id="clip2_111_33913">
<rect width="16" height="16" fill="white" transform="translate(52 0.611328)"/>
</clipPath>
<clipPath id="clip3_111_33913">
<rect width="16" height="16" fill="white" transform="translate(78 0.611328)"/>
</clipPath>
<clipPath id="clip4_111_33913">
<rect width="16" height="16" fill="white" transform="translate(104 0.611328)"/>
</clipPath>
</defs>
</svg>
