<svg width="40" height="41" viewBox="0 0 40 41" fill="none" xmlns="http://www.w3.org/2000/svg">
<circle opacity="0.2" cx="20" cy="20.6113" r="20" fill="url(#paint0_linear_111_33762)"/>
<path d="M26.2344 21.2207C26.2344 22.3353 26.0417 23.3145 25.6562 24.1582C25.2708 24.9967 24.7188 25.6426 24 26.0957C23.2865 26.5436 22.4635 26.7676 21.5312 26.7676C20.6094 26.7676 19.7865 26.5436 19.0625 26.0957C18.3438 25.6426 17.7865 24.9993 17.3906 24.166C17 23.3327 16.8021 22.3717 16.7969 21.2832V20.6426C16.7969 19.5332 16.9922 18.554 17.3828 17.7051C17.7786 16.8561 18.3333 16.2077 19.0469 15.7598C19.7656 15.3066 20.5885 15.0801 21.5156 15.0801C22.4427 15.0801 23.263 15.304 23.9766 15.752C24.6953 16.1947 25.25 16.8353 25.6406 17.6738C26.0312 18.5072 26.2292 19.4785 26.2344 20.5879V21.2207ZM24.2578 20.627C24.2578 19.3665 24.0182 18.4004 23.5391 17.7285C23.0651 17.0566 22.3906 16.7207 21.5156 16.7207C20.6615 16.7207 19.9922 17.0566 19.5078 17.7285C19.0286 18.3952 18.7839 19.3405 18.7734 20.5645V21.2207C18.7734 22.4707 19.0156 23.4368 19.5 24.1191C19.9896 24.8014 20.6667 25.1426 21.5312 25.1426C22.4062 25.1426 23.0781 24.8092 23.5469 24.1426C24.0208 23.4759 24.2578 22.502 24.2578 21.2207V20.627Z" fill="white"/>
<defs>
<linearGradient id="paint0_linear_111_33762" x1="-22.25" y1="-27.1665" x2="47.5911" y2="-18.8684" gradientUnits="userSpaceOnUse">
<stop stop-color="#F64D4D"/>
<stop offset="1" stop-color="#4D5EF6"/>
</linearGradient>
</defs>
</svg>
