<svg width="16" height="16" viewBox="0 0 16 16" fill="none" xmlns="http://www.w3.org/2000/svg">
<g id="star fill" clip-path="url(#clip0_111_38141)">
<g id="Group">
<g id="x32  6">
<g id="Group_2">
<path id="Star 1" d="M7.75882 2.13965L9.47805 5.88864L13.4359 6.43151L10.5406 9.29139L11.2675 13.3759L7.75882 11.3944L4.25018 13.3759L4.97704 9.29139L2.08173 6.43151L6.03959 5.88864L7.75882 2.13965Z" fill="url(#paint0_linear_111_38141)"/>
<path id="Vector" d="M15.1665 6.2441C15.4419 5.96217 15.2828 5.48689 14.8932 5.42745L10.2603 4.72063L8.19675 0.328943C8.02248 -0.0419399 7.49493 -0.0419392 7.32066 0.328944L5.25707 4.72063L0.624099 5.42746C0.234512 5.4869 0.0754861 5.96215 0.35084 6.24409L3.71787 9.69165L2.92549 14.5465C2.86042 14.9452 3.28353 15.2435 3.63714 15.0482L7.75871 12.7721L11.8802 15.0481C12.2338 15.2434 12.6569 14.9451 12.5918 14.5464L11.799 9.69163L15.1665 6.2441ZM7.75871 11.6024L4.0133 13.7022L4.72819 9.46526L1.5036 6.17361L5.86507 5.60642L7.75871 1.57064L9.63521 5.60645L13.9821 6.22304L10.7892 9.4809L11.4567 13.7179L7.75871 11.6024Z" fill="black"/>
</g>
</g>
</g>
</g>
<defs>
<linearGradient id="paint0_linear_111_38141" x1="-4.23404" y1="-5.6633" x2="15.5849" y2="-3.28383" gradientUnits="userSpaceOnUse">
<stop stop-color="#F64D4D"/>
<stop offset="1" stop-color="#4D5EF6"/>
</linearGradient>
<clipPath id="clip0_111_38141">
<rect width="16" height="16" fill="white"/>
</clipPath>
</defs>
</svg>
